<?xml version="1.0" encoding="utf-8" standalone="no"?>
<!DOCTYPE svg PUBLIC "-//W3C//DTD SVG 1.1//EN"
  "http://www.w3.org/Graphics/SVG/1.1/DTD/svg11.dtd">
<svg xmlns:xlink="http://www.w3.org/1999/xlink" width="631.267262pt" height="209.882187pt" viewBox="0 0 631.267262 209.882187" xmlns="http://www.w3.org/2000/svg" version="1.1">
 <metadata>
  <rdf:RDF xmlns:dc="http://purl.org/dc/elements/1.1/" xmlns:cc="http://creativecommons.org/ns#" xmlns:rdf="http://www.w3.org/1999/02/22-rdf-syntax-ns#">
   <cc:Work>
    <dc:type rdf:resource="http://purl.org/dc/dcmitype/StillImage"/>
    <dc:date>2026-03-29T15:01:32.923571</dc:date>
    <dc:format>image/svg+xml</dc:format>
    <dc:creator>
     <cc:Agent>
      <dc:title>Matplotlib v3.10.3, https://matplotlib.org/</dc:title>
     </cc:Agent>
    </dc:creator>
   </cc:Work>
  </rdf:RDF>
 </metadata>
 <defs>
  <style type="text/css">*{stroke-linejoin: round; stroke-linecap: butt}</style>
 </defs>
 <g id="figure_1">
  <g id="patch_1">
   <path d="M 0 209.882187 
L 631.267262 209.882187 
L 631.267262 0 
L 0 0 
z
" style="fill: #ffffff"/>
  </g>
  <g id="axes_1">
   <g id="patch_2">
    <path d="M 59.2475 180.197187 
L 223.266434 180.197187 
L 223.266434 26.877187 
L 59.2475 26.877187 
z
" style="fill: #ffffff"/>
   </g>
   <g id="matplotlib.axis_1">
    <g id="xtick_1">
     <g id="line2d_1">
      <defs>
       <path id="mc4e3e273f7" d="M 0 0 
L 0 3.5 
" style="stroke: #000000; stroke-width: 0.8"/>
      </defs>
      <g>
       <use xlink:href="#mc4e3e273f7" x="109.305227" y="180.197187" style="stroke: #000000; stroke-width: 0.8"/>
      </g>
     </g>
     <g id="text_1">
      <!-- 10 -->
      <g transform="translate(99.125227 199.354687) scale(0.16 -0.16)">
       <defs>
        <path id="DejaVuSans-31" d="M 794 531 
L 1825 531 
L 1825 4091 
L 703 3866 
L 703 4441 
L 1819 4666 
L 2450 4666 
L 2450 531 
L 3481 531 
L 3481 0 
L 794 0 
L 794 531 
z
" transform="scale(0.015625)"/>
        <path id="DejaVuSans-30" d="M 2034 4250 
Q 1547 4250 1301 3770 
Q 1056 3291 1056 2328 
Q 1056 1369 1301 889 
Q 1547 409 2034 409 
Q 2525 409 2770 889 
Q 3016 1369 3016 2328 
Q 3016 3291 2770 3770 
Q 2525 4250 2034 4250 
z
M 2034 4750 
Q 2819 4750 3233 4129 
Q 3647 3509 3647 2328 
Q 3647 1150 3233 529 
Q 2819 -91 2034 -91 
Q 1250 -91 836 529 
Q 422 1150 422 2328 
Q 422 3509 836 4129 
Q 1250 4750 2034 4750 
z
" transform="scale(0.015625)"/>
       </defs>
       <use xlink:href="#DejaVuSans-31"/>
       <use xlink:href="#DejaVuSans-30" transform="translate(63.623047 0)"/>
      </g>
     </g>
    </g>
    <g id="xtick_2">
     <g id="line2d_2">
      <g>
       <use xlink:href="#mc4e3e273f7" x="162.558128" y="180.197187" style="stroke: #000000; stroke-width: 0.8"/>
      </g>
     </g>
     <g id="text_2">
      <!-- 20 -->
      <g transform="translate(152.378128 199.354687) scale(0.16 -0.16)">
       <defs>
        <path id="DejaVuSans-32" d="M 1228 531 
L 3431 531 
L 3431 0 
L 469 0 
L 469 531 
Q 828 903 1448 1529 
Q 2069 2156 2228 2338 
Q 2531 2678 2651 2914 
Q 2772 3150 2772 3378 
Q 2772 3750 2511 3984 
Q 2250 4219 1831 4219 
Q 1534 4219 1204 4116 
Q 875 4013 500 3803 
L 500 4441 
Q 881 4594 1212 4672 
Q 1544 4750 1819 4750 
Q 2544 4750 2975 4387 
Q 3406 4025 3406 3419 
Q 3406 3131 3298 2873 
Q 3191 2616 2906 2266 
Q 2828 2175 2409 1742 
Q 1991 1309 1228 531 
z
" transform="scale(0.015625)"/>
       </defs>
       <use xlink:href="#DejaVuSans-32"/>
       <use xlink:href="#DejaVuSans-30" transform="translate(63.623047 0)"/>
      </g>
     </g>
    </g>
    <g id="xtick_3">
     <g id="line2d_3">
      <g>
       <use xlink:href="#mc4e3e273f7" x="215.811028" y="180.197187" style="stroke: #000000; stroke-width: 0.8"/>
      </g>
     </g>
     <g id="text_3">
      <!-- 30 -->
      <g transform="translate(205.631028 199.354687) scale(0.16 -0.16)">
       <defs>
        <path id="DejaVuSans-33" d="M 2597 2516 
Q 3050 2419 3304 2112 
Q 3559 1806 3559 1356 
Q 3559 666 3084 287 
Q 2609 -91 1734 -91 
Q 1441 -91 1130 -33 
Q 819 25 488 141 
L 488 750 
Q 750 597 1062 519 
Q 1375 441 1716 441 
Q 2309 441 2620 675 
Q 2931 909 2931 1356 
Q 2931 1769 2642 2001 
Q 2353 2234 1838 2234 
L 1294 2234 
L 1294 2753 
L 1863 2753 
Q 2328 2753 2575 2939 
Q 2822 3125 2822 3475 
Q 2822 3834 2567 4026 
Q 2313 4219 1838 4219 
Q 1578 4219 1281 4162 
Q 984 4106 628 3988 
L 628 4550 
Q 988 4650 1302 4700 
Q 1616 4750 1894 4750 
Q 2613 4750 3031 4423 
Q 3450 4097 3450 3541 
Q 3450 3153 3228 2886 
Q 3006 2619 2597 2516 
z
" transform="scale(0.015625)"/>
       </defs>
       <use xlink:href="#DejaVuSans-33"/>
       <use xlink:href="#DejaVuSans-30" transform="translate(63.623047 0)"/>
      </g>
     </g>
    </g>
   </g>
   <g id="matplotlib.axis_2">
    <g id="ytick_1">
     <g id="line2d_4">
      <defs>
       <path id="m9586b0e6dd" d="M 0 0 
L -3.5 0 
" style="stroke: #000000; stroke-width: 0.8"/>
      </defs>
      <g>
       <use xlink:href="#m9586b0e6dd" x="59.2475" y="173.228097" style="stroke: #000000; stroke-width: 0.8"/>
      </g>
     </g>
     <g id="text_4">
      <!-- −2 -->
      <g transform="translate(28.66 179.306847) scale(0.16 -0.16)">
       <defs>
        <path id="DejaVuSans-2212" d="M 678 2272 
L 4684 2272 
L 4684 1741 
L 678 1741 
L 678 2272 
z
" transform="scale(0.015625)"/>
       </defs>
       <use xlink:href="#DejaVuSans-2212"/>
       <use xlink:href="#DejaVuSans-32" transform="translate(83.789062 0)"/>
      </g>
     </g>
    </g>
    <g id="ytick_2">
     <g id="line2d_5">
      <g>
       <use xlink:href="#m9586b0e6dd" x="59.2475" y="121.572524" style="stroke: #000000; stroke-width: 0.8"/>
      </g>
     </g>
     <g id="text_5">
      <!-- −1 -->
      <g transform="translate(28.66 127.651274) scale(0.16 -0.16)">
       <use xlink:href="#DejaVuSans-2212"/>
       <use xlink:href="#DejaVuSans-31" transform="translate(83.789062 0)"/>
      </g>
     </g>
    </g>
    <g id="ytick_3">
     <g id="line2d_6">
      <g>
       <use xlink:href="#m9586b0e6dd" x="59.2475" y="69.916951" style="stroke: #000000; stroke-width: 0.8"/>
      </g>
     </g>
     <g id="text_6">
      <!-- 0 -->
      <g transform="translate(42.0675 75.995701) scale(0.16 -0.16)">
       <use xlink:href="#DejaVuSans-30"/>
      </g>
     </g>
    </g>
    <g id="text_7">
     <!-- MSE ($\log_{{10}}$) -->
     <g transform="translate(20.88 156.187187) rotate(-90) scale(0.18 -0.18)">
      <defs>
       <path id="DejaVuSans-4d" d="M 628 4666 
L 1569 4666 
L 2759 1491 
L 3956 4666 
L 4897 4666 
L 4897 0 
L 4281 0 
L 4281 4097 
L 3078 897 
L 2444 897 
L 1241 4097 
L 1241 0 
L 628 0 
L 628 4666 
z
" transform="scale(0.015625)"/>
       <path id="DejaVuSans-53" d="M 3425 4513 
L 3425 3897 
Q 3066 4069 2747 4153 
Q 2428 4238 2131 4238 
Q 1616 4238 1336 4038 
Q 1056 3838 1056 3469 
Q 1056 3159 1242 3001 
Q 1428 2844 1947 2747 
L 2328 2669 
Q 3034 2534 3370 2195 
Q 3706 1856 3706 1288 
Q 3706 609 3251 259 
Q 2797 -91 1919 -91 
Q 1588 -91 1214 -16 
Q 841 59 441 206 
L 441 856 
Q 825 641 1194 531 
Q 1563 422 1919 422 
Q 2459 422 2753 634 
Q 3047 847 3047 1241 
Q 3047 1584 2836 1778 
Q 2625 1972 2144 2069 
L 1759 2144 
Q 1053 2284 737 2584 
Q 422 2884 422 3419 
Q 422 4038 858 4394 
Q 1294 4750 2059 4750 
Q 2388 4750 2728 4690 
Q 3069 4631 3425 4513 
z
" transform="scale(0.015625)"/>
       <path id="DejaVuSans-45" d="M 628 4666 
L 3578 4666 
L 3578 4134 
L 1259 4134 
L 1259 2753 
L 3481 2753 
L 3481 2222 
L 1259 2222 
L 1259 531 
L 3634 531 
L 3634 0 
L 628 0 
L 628 4666 
z
" transform="scale(0.015625)"/>
       <path id="DejaVuSans-20" transform="scale(0.015625)"/>
       <path id="DejaVuSans-28" d="M 1984 4856 
Q 1566 4138 1362 3434 
Q 1159 2731 1159 2009 
Q 1159 1288 1364 580 
Q 1569 -128 1984 -844 
L 1484 -844 
Q 1016 -109 783 600 
Q 550 1309 550 2009 
Q 550 2706 781 3412 
Q 1013 4119 1484 4856 
L 1984 4856 
z
" transform="scale(0.015625)"/>
       <path id="DejaVuSans-6c" d="M 603 4863 
L 1178 4863 
L 1178 0 
L 603 0 
L 603 4863 
z
" transform="scale(0.015625)"/>
       <path id="DejaVuSans-6f" d="M 1959 3097 
Q 1497 3097 1228 2736 
Q 959 2375 959 1747 
Q 959 1119 1226 758 
Q 1494 397 1959 397 
Q 2419 397 2687 759 
Q 2956 1122 2956 1747 
Q 2956 2369 2687 2733 
Q 2419 3097 1959 3097 
z
M 1959 3584 
Q 2709 3584 3137 3096 
Q 3566 2609 3566 1747 
Q 3566 888 3137 398 
Q 2709 -91 1959 -91 
Q 1206 -91 779 398 
Q 353 888 353 1747 
Q 353 2609 779 3096 
Q 1206 3584 1959 3584 
z
" transform="scale(0.015625)"/>
       <path id="DejaVuSans-67" d="M 2906 1791 
Q 2906 2416 2648 2759 
Q 2391 3103 1925 3103 
Q 1463 3103 1205 2759 
Q 947 2416 947 1791 
Q 947 1169 1205 825 
Q 1463 481 1925 481 
Q 2391 481 2648 825 
Q 2906 1169 2906 1791 
z
M 3481 434 
Q 3481 -459 3084 -895 
Q 2688 -1331 1869 -1331 
Q 1566 -1331 1297 -1286 
Q 1028 -1241 775 -1147 
L 775 -588 
Q 1028 -725 1275 -790 
Q 1522 -856 1778 -856 
Q 2344 -856 2625 -561 
Q 2906 -266 2906 331 
L 2906 616 
Q 2728 306 2450 153 
Q 2172 0 1784 0 
Q 1141 0 747 490 
Q 353 981 353 1791 
Q 353 2603 747 3093 
Q 1141 3584 1784 3584 
Q 2172 3584 2450 3431 
Q 2728 3278 2906 2969 
L 2906 3500 
L 3481 3500 
L 3481 434 
z
" transform="scale(0.015625)"/>
       <path id="DejaVuSans-29" d="M 513 4856 
L 1013 4856 
Q 1481 4119 1714 3412 
Q 1947 2706 1947 2009 
Q 1947 1309 1714 600 
Q 1481 -109 1013 -844 
L 513 -844 
Q 928 -128 1133 580 
Q 1338 1288 1338 2009 
Q 1338 2731 1133 3434 
Q 928 4138 513 4856 
z
" transform="scale(0.015625)"/>
      </defs>
      <use xlink:href="#DejaVuSans-4d" transform="translate(0 0.015625)"/>
      <use xlink:href="#DejaVuSans-53" transform="translate(86.279297 0.015625)"/>
      <use xlink:href="#DejaVuSans-45" transform="translate(149.755859 0.015625)"/>
      <use xlink:href="#DejaVuSans-20" transform="translate(212.939453 0.015625)"/>
      <use xlink:href="#DejaVuSans-28" transform="translate(244.726562 0.015625)"/>
      <use xlink:href="#DejaVuSans-6c" transform="translate(283.740234 0.015625)"/>
      <use xlink:href="#DejaVuSans-6f" transform="translate(311.523438 0.015625)"/>
      <use xlink:href="#DejaVuSans-67" transform="translate(372.705078 0.015625)"/>
      <use xlink:href="#DejaVuSans-31" transform="translate(437.138672 -16.390625) scale(0.7)"/>
      <use xlink:href="#DejaVuSans-30" transform="translate(481.674805 -16.390625) scale(0.7)"/>
      <use xlink:href="#DejaVuSans-29" transform="translate(545.180989 0.015625)"/>
     </g>
    </g>
   </g>
   <g id="line2d_7">
    <path d="M 66.702906 154.220045 
L 82.678776 129.574073 
L 109.305227 103.884484 
L 162.558128 67.508499 
L 215.811028 63.632056 
" clip-path="url(#pca3d0992a1)" style="fill: none; stroke-dasharray: 2,3.3; stroke-dashoffset: 0; stroke: #003049; stroke-width: 2"/>
    <defs>
     <path id="mc380982c92" d="M 0 3 
C 0.795609 3 1.55874 2.683901 2.12132 2.12132 
C 2.683901 1.55874 3 0.795609 3 0 
C 3 -0.795609 2.683901 -1.55874 2.12132 -2.12132 
C 1.55874 -2.683901 0.795609 -3 0 -3 
C -0.795609 -3 -1.55874 -2.683901 -2.12132 -2.12132 
C -2.683901 -1.55874 -3 -0.795609 -3 0 
C -3 0.795609 -2.683901 1.55874 -2.12132 2.12132 
C -1.55874 2.683901 -0.795609 3 0 3 
z
" style="stroke: #003049"/>
    </defs>
    <g clip-path="url(#pca3d0992a1)">
     <use xlink:href="#mc380982c92" x="66.702906" y="154.220045" style="fill: #003049; stroke: #003049"/>
     <use xlink:href="#mc380982c92" x="82.678776" y="129.574073" style="fill: #003049; stroke: #003049"/>
     <use xlink:href="#mc380982c92" x="109.305227" y="103.884484" style="fill: #003049; stroke: #003049"/>
     <use xlink:href="#mc380982c92" x="162.558128" y="67.508499" style="fill: #003049; stroke: #003049"/>
     <use xlink:href="#mc380982c92" x="215.811028" y="63.632056" style="fill: #003049; stroke: #003049"/>
    </g>
   </g>
   <g id="line2d_8">
    <path d="M 66.702906 166.774315 
L 82.678776 140.332686 
L 109.305227 108.386276 
L 162.558128 79.928835 
L 215.811028 78.241293 
" clip-path="url(#pca3d0992a1)" style="fill: none; stroke: #003049; stroke-width: 2; stroke-linecap: square"/>
    <g clip-path="url(#pca3d0992a1)">
     <use xlink:href="#mc380982c92" x="66.702906" y="166.774315" style="fill: #003049; stroke: #003049"/>
     <use xlink:href="#mc380982c92" x="82.678776" y="140.332686" style="fill: #003049; stroke: #003049"/>
     <use xlink:href="#mc380982c92" x="109.305227" y="108.386276" style="fill: #003049; stroke: #003049"/>
     <use xlink:href="#mc380982c92" x="162.558128" y="79.928835" style="fill: #003049; stroke: #003049"/>
     <use xlink:href="#mc380982c92" x="215.811028" y="78.241293" style="fill: #003049; stroke: #003049"/>
    </g>
   </g>
   <g id="line2d_9">
    <path d="M 66.702906 157.67822 
L 82.678776 115.686714 
L 109.305227 101.016704 
L 162.558128 71.305047 
L 215.811028 54.630339 
" clip-path="url(#pca3d0992a1)" style="fill: none; stroke-dasharray: 2,3.3; stroke-dashoffset: 0; stroke: #669bbc; stroke-width: 2"/>
    <defs>
     <path id="mcda095ab1f" d="M 0 3 
C 0.795609 3 1.55874 2.683901 2.12132 2.12132 
C 2.683901 1.55874 3 0.795609 3 0 
C 3 -0.795609 2.683901 -1.55874 2.12132 -2.12132 
C 1.55874 -2.683901 0.795609 -3 0 -3 
C -0.795609 -3 -1.55874 -2.683901 -2.12132 -2.12132 
C -2.683901 -1.55874 -3 -0.795609 -3 0 
C -3 0.795609 -2.683901 1.55874 -2.12132 2.12132 
C -1.55874 2.683901 -0.795609 3 0 3 
z
" style="stroke: #669bbc"/>
    </defs>
    <g clip-path="url(#pca3d0992a1)">
     <use xlink:href="#mcda095ab1f" x="66.702906" y="157.67822" style="fill: #669bbc; stroke: #669bbc"/>
     <use xlink:href="#mcda095ab1f" x="82.678776" y="115.686714" style="fill: #669bbc; stroke: #669bbc"/>
     <use xlink:href="#mcda095ab1f" x="109.305227" y="101.016704" style="fill: #669bbc; stroke: #669bbc"/>
     <use xlink:href="#mcda095ab1f" x="162.558128" y="71.305047" style="fill: #669bbc; stroke: #669bbc"/>
     <use xlink:href="#mcda095ab1f" x="215.811028" y="54.630339" style="fill: #669bbc; stroke: #669bbc"/>
    </g>
   </g>
   <g id="line2d_10">
    <path d="M 66.702906 173.228097 
L 82.678776 127.533237 
L 109.305227 118.114349 
L 162.558128 90.849816 
L 215.811028 75.683431 
" clip-path="url(#pca3d0992a1)" style="fill: none; stroke: #669bbc; stroke-width: 2; stroke-linecap: square"/>
    <g clip-path="url(#pca3d0992a1)">
     <use xlink:href="#mcda095ab1f" x="66.702906" y="173.228097" style="fill: #669bbc; stroke: #669bbc"/>
     <use xlink:href="#mcda095ab1f" x="82.678776" y="127.533237" style="fill: #669bbc; stroke: #669bbc"/>
     <use xlink:href="#mcda095ab1f" x="109.305227" y="118.114349" style="fill: #669bbc; stroke: #669bbc"/>
     <use xlink:href="#mcda095ab1f" x="162.558128" y="90.849816" style="fill: #669bbc; stroke: #669bbc"/>
     <use xlink:href="#mcda095ab1f" x="215.811028" y="75.683431" style="fill: #669bbc; stroke: #669bbc"/>
    </g>
   </g>
   <g id="line2d_11">
    <path d="M 66.702906 144.080333 
L 82.678776 124.782809 
L 109.305227 108.386276 
L 162.558128 66.458776 
L 215.811028 57.70716 
" clip-path="url(#pca3d0992a1)" style="fill: none; stroke-dasharray: 2,3.3; stroke-dashoffset: 0; stroke: #c1121f; stroke-width: 2"/>
    <defs>
     <path id="m81fd65d236" d="M 0 3 
C 0.795609 3 1.55874 2.683901 2.12132 2.12132 
C 2.683901 1.55874 3 0.795609 3 0 
C 3 -0.795609 2.683901 -1.55874 2.12132 -2.12132 
C 1.55874 -2.683901 0.795609 -3 0 -3 
C -0.795609 -3 -1.55874 -2.683901 -2.12132 -2.12132 
C -2.683901 -1.55874 -3 -0.795609 -3 0 
C -3 0.795609 -2.683901 1.55874 -2.12132 2.12132 
C -1.55874 2.683901 -0.795609 3 0 3 
z
" style="stroke: #c1121f"/>
    </defs>
    <g clip-path="url(#pca3d0992a1)">
     <use xlink:href="#m81fd65d236" x="66.702906" y="144.080333" style="fill: #c1121f; stroke: #c1121f"/>
     <use xlink:href="#m81fd65d236" x="82.678776" y="124.782809" style="fill: #c1121f; stroke: #c1121f"/>
     <use xlink:href="#m81fd65d236" x="109.305227" y="108.386276" style="fill: #c1121f; stroke: #c1121f"/>
     <use xlink:href="#m81fd65d236" x="162.558128" y="66.458776" style="fill: #c1121f; stroke: #c1121f"/>
     <use xlink:href="#m81fd65d236" x="215.811028" y="57.70716" style="fill: #c1121f; stroke: #c1121f"/>
    </g>
   </g>
   <g id="line2d_12">
    <path d="M 66.702906 157.67822 
L 82.678776 137.1224 
L 109.305227 116.269441 
L 162.558128 89.378224 
L 215.811028 73.213686 
" clip-path="url(#pca3d0992a1)" style="fill: none; stroke: #c1121f; stroke-width: 2; stroke-linecap: square"/>
    <g clip-path="url(#pca3d0992a1)">
     <use xlink:href="#m81fd65d236" x="66.702906" y="157.67822" style="fill: #c1121f; stroke: #c1121f"/>
     <use xlink:href="#m81fd65d236" x="82.678776" y="137.1224" style="fill: #c1121f; stroke: #c1121f"/>
     <use xlink:href="#m81fd65d236" x="109.305227" y="116.269441" style="fill: #c1121f; stroke: #c1121f"/>
     <use xlink:href="#m81fd65d236" x="162.558128" y="89.378224" style="fill: #c1121f; stroke: #c1121f"/>
     <use xlink:href="#m81fd65d236" x="215.811028" y="73.213686" style="fill: #c1121f; stroke: #c1121f"/>
    </g>
   </g>
   <g id="line2d_13">
    <path d="M 66.702906 136.502889 
L 82.678776 108.864948 
L 109.305227 76.269263 
L 162.558128 37.203123 
L 215.811028 39.492417 
" clip-path="url(#pca3d0992a1)" style="fill: none; stroke-dasharray: 2,3.3; stroke-dashoffset: 0; stroke: #f28e79; stroke-width: 2"/>
    <defs>
     <path id="m2ab67744e6" d="M 0 3 
C 0.795609 3 1.55874 2.683901 2.12132 2.12132 
C 2.683901 1.55874 3 0.795609 3 0 
C 3 -0.795609 2.683901 -1.55874 2.12132 -2.12132 
C 1.55874 -2.683901 0.795609 -3 0 -3 
C -0.795609 -3 -1.55874 -2.683901 -2.12132 -2.12132 
C -2.683901 -1.55874 -3 -0.795609 -3 0 
C -3 0.795609 -2.683901 1.55874 -2.12132 2.12132 
C -1.55874 2.683901 -0.795609 3 0 3 
z
" style="stroke: #f28e79"/>
    </defs>
    <g clip-path="url(#pca3d0992a1)">
     <use xlink:href="#m2ab67744e6" x="66.702906" y="136.502889" style="fill: #f28e79; stroke: #f28e79"/>
     <use xlink:href="#m2ab67744e6" x="82.678776" y="108.864948" style="fill: #f28e79; stroke: #f28e79"/>
     <use xlink:href="#m2ab67744e6" x="109.305227" y="76.269263" style="fill: #f28e79; stroke: #f28e79"/>
     <use xlink:href="#m2ab67744e6" x="162.558128" y="37.203123" style="fill: #f28e79; stroke: #f28e79"/>
     <use xlink:href="#m2ab67744e6" x="215.811028" y="39.492417" style="fill: #f28e79; stroke: #f28e79"/>
    </g>
   </g>
   <g id="line2d_14">
    <path d="M 66.702906 136.156416 
L 82.678776 122.025746 
L 109.305227 80.684539 
L 162.558128 58.113496 
L 215.811028 33.846278 
" clip-path="url(#pca3d0992a1)" style="fill: none; stroke-dasharray: 2,3.3; stroke-dashoffset: 0; stroke: #f07229; stroke-width: 2"/>
    <defs>
     <path id="md83f367551" d="M 0 3 
C 0.795609 3 1.55874 2.683901 2.12132 2.12132 
C 2.683901 1.55874 3 0.795609 3 0 
C 3 -0.795609 2.683901 -1.55874 2.12132 -2.12132 
C 1.55874 -2.683901 0.795609 -3 0 -3 
C -0.795609 -3 -1.55874 -2.683901 -2.12132 -2.12132 
C -2.683901 -1.55874 -3 -0.795609 -3 0 
C -3 0.795609 -2.683901 1.55874 -2.12132 2.12132 
C -1.55874 2.683901 -0.795609 3 0 3 
z
" style="stroke: #f07229"/>
    </defs>
    <g clip-path="url(#pca3d0992a1)">
     <use xlink:href="#md83f367551" x="66.702906" y="136.156416" style="fill: #f07229; stroke: #f07229"/>
     <use xlink:href="#md83f367551" x="82.678776" y="122.025746" style="fill: #f07229; stroke: #f07229"/>
     <use xlink:href="#md83f367551" x="109.305227" y="80.684539" style="fill: #f07229; stroke: #f07229"/>
     <use xlink:href="#md83f367551" x="162.558128" y="58.113496" style="fill: #f07229; stroke: #f07229"/>
     <use xlink:href="#md83f367551" x="215.811028" y="33.846278" style="fill: #f07229; stroke: #f07229"/>
    </g>
   </g>
   <g id="patch_3">
    <path d="M 59.2475 180.197187 
L 59.2475 26.877187 
" style="fill: none; stroke: #000000; stroke-width: 0.8; stroke-linejoin: miter; stroke-linecap: square"/>
   </g>
   <g id="patch_4">
    <path d="M 223.266434 180.197187 
L 223.266434 26.877187 
" style="fill: none; stroke: #000000; stroke-width: 0.8; stroke-linejoin: miter; stroke-linecap: square"/>
   </g>
   <g id="patch_5">
    <path d="M 59.2475 180.197187 
L 223.266434 180.197187 
" style="fill: none; stroke: #000000; stroke-width: 0.8; stroke-linejoin: miter; stroke-linecap: square"/>
   </g>
   <g id="patch_6">
    <path d="M 59.2475 26.877187 
L 223.266434 26.877187 
" style="fill: none; stroke: #000000; stroke-width: 0.8; stroke-linejoin: miter; stroke-linecap: square"/>
   </g>
   <g id="text_8">
    <!-- $s = 1$ -->
    <g transform="translate(119.746967 20.877187) scale(0.18 -0.18)">
     <defs>
      <path id="DejaVuSans-Oblique-73" d="M 3200 3397 
L 3091 2853 
Q 2863 2978 2609 3040 
Q 2356 3103 2088 3103 
Q 1634 3103 1373 2948 
Q 1113 2794 1113 2528 
Q 1113 2219 1719 2053 
Q 1766 2041 1788 2034 
L 1972 1978 
Q 2547 1819 2739 1644 
Q 2931 1469 2931 1166 
Q 2931 609 2489 259 
Q 2047 -91 1331 -91 
Q 1053 -91 747 -37 
Q 441 16 72 128 
L 184 722 
Q 500 559 806 475 
Q 1113 391 1394 391 
Q 1816 391 2080 572 
Q 2344 753 2344 1031 
Q 2344 1331 1650 1516 
L 1591 1531 
L 1394 1581 
Q 956 1697 753 1886 
Q 550 2075 550 2369 
Q 550 2928 970 3256 
Q 1391 3584 2113 3584 
Q 2397 3584 2667 3537 
Q 2938 3491 3200 3397 
z
" transform="scale(0.015625)"/>
      <path id="DejaVuSans-3d" d="M 678 2906 
L 4684 2906 
L 4684 2381 
L 678 2381 
L 678 2906 
z
M 678 1631 
L 4684 1631 
L 4684 1100 
L 678 1100 
L 678 1631 
z
" transform="scale(0.015625)"/>
     </defs>
     <use xlink:href="#DejaVuSans-Oblique-73" transform="translate(0 0.09375)"/>
     <use xlink:href="#DejaVuSans-3d" transform="translate(71.582031 0.09375)"/>
     <use xlink:href="#DejaVuSans-31" transform="translate(174.853516 0.09375)"/>
    </g>
   </g>
  </g>
  <g id="axes_2">
   <g id="patch_7">
    <path d="M 264.646434 180.197187 
L 428.665369 180.197187 
L 428.665369 26.877187 
L 264.646434 26.877187 
z
" style="fill: #ffffff"/>
   </g>
   <g id="matplotlib.axis_3">
    <g id="xtick_4">
     <g id="line2d_15">
      <g>
       <use xlink:href="#mc4e3e273f7" x="314.704161" y="180.197187" style="stroke: #000000; stroke-width: 0.8"/>
      </g>
     </g>
     <g id="text_9">
      <!-- 10 -->
      <g transform="translate(304.524161 199.354687) scale(0.16 -0.16)">
       <use xlink:href="#DejaVuSans-31"/>
       <use xlink:href="#DejaVuSans-30" transform="translate(63.623047 0)"/>
      </g>
     </g>
    </g>
    <g id="xtick_5">
     <g id="line2d_16">
      <g>
       <use xlink:href="#mc4e3e273f7" x="367.957062" y="180.197187" style="stroke: #000000; stroke-width: 0.8"/>
      </g>
     </g>
     <g id="text_10">
      <!-- 20 -->
      <g transform="translate(357.777062 199.354687) scale(0.16 -0.16)">
       <use xlink:href="#DejaVuSans-32"/>
       <use xlink:href="#DejaVuSans-30" transform="translate(63.623047 0)"/>
      </g>
     </g>
    </g>
    <g id="xtick_6">
     <g id="line2d_17">
      <g>
       <use xlink:href="#mc4e3e273f7" x="421.209963" y="180.197187" style="stroke: #000000; stroke-width: 0.8"/>
      </g>
     </g>
     <g id="text_11">
      <!-- 30 -->
      <g transform="translate(411.029963 199.354687) scale(0.16 -0.16)">
       <use xlink:href="#DejaVuSans-33"/>
       <use xlink:href="#DejaVuSans-30" transform="translate(63.623047 0)"/>
      </g>
     </g>
    </g>
   </g>
   <g id="matplotlib.axis_4">
    <g id="ytick_4">
     <g id="line2d_18">
      <g>
       <use xlink:href="#m9586b0e6dd" x="264.646434" y="161.44064" style="stroke: #000000; stroke-width: 0.8"/>
      </g>
     </g>
     <g id="text_12">
      <!-- −1 -->
      <g transform="translate(234.058934 167.51939) scale(0.16 -0.16)">
       <use xlink:href="#DejaVuSans-2212"/>
       <use xlink:href="#DejaVuSans-31" transform="translate(83.789062 0)"/>
      </g>
     </g>
    </g>
    <g id="ytick_5">
     <g id="line2d_19">
      <g>
       <use xlink:href="#m9586b0e6dd" x="264.646434" y="118.263344" style="stroke: #000000; stroke-width: 0.8"/>
      </g>
     </g>
     <g id="text_13">
      <!-- 0 -->
      <g transform="translate(247.466434 124.342094) scale(0.16 -0.16)">
       <use xlink:href="#DejaVuSans-30"/>
      </g>
     </g>
    </g>
    <g id="ytick_6">
     <g id="line2d_20">
      <g>
       <use xlink:href="#m9586b0e6dd" x="264.646434" y="75.086048" style="stroke: #000000; stroke-width: 0.8"/>
      </g>
     </g>
     <g id="text_14">
      <!-- 1 -->
      <g transform="translate(247.466434 81.164798) scale(0.16 -0.16)">
       <use xlink:href="#DejaVuSans-31"/>
      </g>
     </g>
    </g>
    <g id="ytick_7">
     <g id="line2d_21">
      <g>
       <use xlink:href="#m9586b0e6dd" x="264.646434" y="31.908753" style="stroke: #000000; stroke-width: 0.8"/>
      </g>
     </g>
     <g id="text_15">
      <!-- 2 -->
      <g transform="translate(247.466434 37.987503) scale(0.16 -0.16)">
       <use xlink:href="#DejaVuSans-32"/>
      </g>
     </g>
    </g>
   </g>
   <g id="line2d_22">
    <path d="M 272.101841 144.258666 
L 288.077711 108.948893 
L 314.704161 89.769947 
L 367.957062 61.552325 
L 421.209963 39.580466 
" clip-path="url(#p01cb1cf424)" style="fill: none; stroke-dasharray: 2,3.3; stroke-dashoffset: 0; stroke: #003049; stroke-width: 2"/>
    <g clip-path="url(#p01cb1cf424)">
     <use xlink:href="#mc380982c92" x="272.101841" y="144.258666" style="fill: #003049; stroke: #003049"/>
     <use xlink:href="#mc380982c92" x="288.077711" y="108.948893" style="fill: #003049; stroke: #003049"/>
     <use xlink:href="#mc380982c92" x="314.704161" y="89.769947" style="fill: #003049; stroke: #003049"/>
     <use xlink:href="#mc380982c92" x="367.957062" y="61.552325" style="fill: #003049; stroke: #003049"/>
     <use xlink:href="#mc380982c92" x="421.209963" y="39.580466" style="fill: #003049; stroke: #003049"/>
    </g>
   </g>
   <g id="line2d_23">
    <path d="M 272.101841 173.228097 
L 288.077711 136.407152 
L 314.704161 122.29204 
L 367.957062 82.76435 
L 421.209963 61.146722 
" clip-path="url(#p01cb1cf424)" style="fill: none; stroke: #003049; stroke-width: 2; stroke-linecap: square"/>
    <g clip-path="url(#p01cb1cf424)">
     <use xlink:href="#mc380982c92" x="272.101841" y="173.228097" style="fill: #003049; stroke: #003049"/>
     <use xlink:href="#mc380982c92" x="288.077711" y="136.407152" style="fill: #003049; stroke: #003049"/>
     <use xlink:href="#mc380982c92" x="314.704161" y="122.29204" style="fill: #003049; stroke: #003049"/>
     <use xlink:href="#mc380982c92" x="367.957062" y="82.76435" style="fill: #003049; stroke: #003049"/>
     <use xlink:href="#mc380982c92" x="421.209963" y="61.146722" style="fill: #003049; stroke: #003049"/>
    </g>
   </g>
   <g id="line2d_24">
    <path d="M 272.101841 133.944384 
L 288.077711 112.269092 
L 314.704161 92.190052 
L 367.957062 61.57968 
L 421.209963 33.846278 
" clip-path="url(#p01cb1cf424)" style="fill: none; stroke-dasharray: 2,3.3; stroke-dashoffset: 0; stroke: #669bbc; stroke-width: 2"/>
    <g clip-path="url(#p01cb1cf424)">
     <use xlink:href="#mcda095ab1f" x="272.101841" y="133.944384" style="fill: #669bbc; stroke: #669bbc"/>
     <use xlink:href="#mcda095ab1f" x="288.077711" y="112.269092" style="fill: #669bbc; stroke: #669bbc"/>
     <use xlink:href="#mcda095ab1f" x="314.704161" y="92.190052" style="fill: #669bbc; stroke: #669bbc"/>
     <use xlink:href="#mcda095ab1f" x="367.957062" y="61.57968" style="fill: #669bbc; stroke: #669bbc"/>
     <use xlink:href="#mcda095ab1f" x="421.209963" y="33.846278" style="fill: #669bbc; stroke: #669bbc"/>
    </g>
   </g>
   <g id="line2d_25">
    <path d="M 272.101841 157.007958 
L 288.077711 141.692329 
L 314.704161 125.772964 
L 367.957062 73.005647 
L 421.209963 52.876915 
" clip-path="url(#p01cb1cf424)" style="fill: none; stroke: #669bbc; stroke-width: 2; stroke-linecap: square"/>
    <g clip-path="url(#p01cb1cf424)">
     <use xlink:href="#mcda095ab1f" x="272.101841" y="157.007958" style="fill: #669bbc; stroke: #669bbc"/>
     <use xlink:href="#mcda095ab1f" x="288.077711" y="141.692329" style="fill: #669bbc; stroke: #669bbc"/>
     <use xlink:href="#mcda095ab1f" x="314.704161" y="125.772964" style="fill: #669bbc; stroke: #669bbc"/>
     <use xlink:href="#mcda095ab1f" x="367.957062" y="73.005647" style="fill: #669bbc; stroke: #669bbc"/>
     <use xlink:href="#mcda095ab1f" x="421.209963" y="52.876915" style="fill: #669bbc; stroke: #669bbc"/>
    </g>
   </g>
   <g id="line2d_26">
    <path d="M 272.101841 153.837496 
L 288.077711 115.697007 
L 314.704161 96.084832 
L 367.957062 61.677265 
L 421.209963 34.401976 
" clip-path="url(#p01cb1cf424)" style="fill: none; stroke-dasharray: 2,3.3; stroke-dashoffset: 0; stroke: #c1121f; stroke-width: 2"/>
    <g clip-path="url(#p01cb1cf424)">
     <use xlink:href="#m81fd65d236" x="272.101841" y="153.837496" style="fill: #c1121f; stroke: #c1121f"/>
     <use xlink:href="#m81fd65d236" x="288.077711" y="115.697007" style="fill: #c1121f; stroke: #c1121f"/>
     <use xlink:href="#m81fd65d236" x="314.704161" y="96.084832" style="fill: #c1121f; stroke: #c1121f"/>
     <use xlink:href="#m81fd65d236" x="367.957062" y="61.677265" style="fill: #c1121f; stroke: #c1121f"/>
     <use xlink:href="#m81fd65d236" x="421.209963" y="34.401976" style="fill: #c1121f; stroke: #c1121f"/>
    </g>
   </g>
   <g id="line2d_27">
    <path d="M 272.101841 168.128888 
L 288.077711 143.284335 
L 314.704161 111.687945 
L 367.957062 70.732487 
L 421.209963 49.723204 
" clip-path="url(#p01cb1cf424)" style="fill: none; stroke: #c1121f; stroke-width: 2; stroke-linecap: square"/>
    <g clip-path="url(#p01cb1cf424)">
     <use xlink:href="#m81fd65d236" x="272.101841" y="168.128888" style="fill: #c1121f; stroke: #c1121f"/>
     <use xlink:href="#m81fd65d236" x="288.077711" y="143.284335" style="fill: #c1121f; stroke: #c1121f"/>
     <use xlink:href="#m81fd65d236" x="314.704161" y="111.687945" style="fill: #c1121f; stroke: #c1121f"/>
     <use xlink:href="#m81fd65d236" x="367.957062" y="70.732487" style="fill: #c1121f; stroke: #c1121f"/>
     <use xlink:href="#m81fd65d236" x="421.209963" y="49.723204" style="fill: #c1121f; stroke: #c1121f"/>
    </g>
   </g>
   <g id="line2d_28">
    <path d="M 272.101841 144.139038 
L 288.077711 88.858568 
L 314.704161 73.455628 
L 367.957062 54.921568 
L 421.209963 45.48353 
" clip-path="url(#p01cb1cf424)" style="fill: none; stroke-dasharray: 2,3.3; stroke-dashoffset: 0; stroke: #f28e79; stroke-width: 2"/>
    <g clip-path="url(#p01cb1cf424)">
     <use xlink:href="#m2ab67744e6" x="272.101841" y="144.139038" style="fill: #f28e79; stroke: #f28e79"/>
     <use xlink:href="#m2ab67744e6" x="288.077711" y="88.858568" style="fill: #f28e79; stroke: #f28e79"/>
     <use xlink:href="#m2ab67744e6" x="314.704161" y="73.455628" style="fill: #f28e79; stroke: #f28e79"/>
     <use xlink:href="#m2ab67744e6" x="367.957062" y="54.921568" style="fill: #f28e79; stroke: #f28e79"/>
     <use xlink:href="#m2ab67744e6" x="421.209963" y="45.48353" style="fill: #f28e79; stroke: #f28e79"/>
    </g>
   </g>
   <g id="line2d_29">
    <path d="M 272.101841 142.885099 
L 288.077711 97.682551 
L 314.704161 66.783305 
L 367.957062 59.970319 
L 421.209963 50.378899 
" clip-path="url(#p01cb1cf424)" style="fill: none; stroke-dasharray: 2,3.3; stroke-dashoffset: 0; stroke: #f07229; stroke-width: 2"/>
    <g clip-path="url(#p01cb1cf424)">
     <use xlink:href="#md83f367551" x="272.101841" y="142.885099" style="fill: #f07229; stroke: #f07229"/>
     <use xlink:href="#md83f367551" x="288.077711" y="97.682551" style="fill: #f07229; stroke: #f07229"/>
     <use xlink:href="#md83f367551" x="314.704161" y="66.783305" style="fill: #f07229; stroke: #f07229"/>
     <use xlink:href="#md83f367551" x="367.957062" y="59.970319" style="fill: #f07229; stroke: #f07229"/>
     <use xlink:href="#md83f367551" x="421.209963" y="50.378899" style="fill: #f07229; stroke: #f07229"/>
    </g>
   </g>
   <g id="patch_8">
    <path d="M 264.646434 180.197187 
L 264.646434 26.877187 
" style="fill: none; stroke: #000000; stroke-width: 0.8; stroke-linejoin: miter; stroke-linecap: square"/>
   </g>
   <g id="patch_9">
    <path d="M 428.665369 180.197187 
L 428.665369 26.877187 
" style="fill: none; stroke: #000000; stroke-width: 0.8; stroke-linejoin: miter; stroke-linecap: square"/>
   </g>
   <g id="patch_10">
    <path d="M 264.646434 180.197187 
L 428.665369 180.197187 
" style="fill: none; stroke: #000000; stroke-width: 0.8; stroke-linejoin: miter; stroke-linecap: square"/>
   </g>
   <g id="patch_11">
    <path d="M 264.646434 26.877187 
L 428.665369 26.877187 
" style="fill: none; stroke: #000000; stroke-width: 0.8; stroke-linejoin: miter; stroke-linecap: square"/>
   </g>
   <g id="text_16">
    <!-- $s = 2$ -->
    <g transform="translate(325.145902 20.877187) scale(0.18 -0.18)">
     <use xlink:href="#DejaVuSans-Oblique-73" transform="translate(0 0.78125)"/>
     <use xlink:href="#DejaVuSans-3d" transform="translate(71.582031 0.78125)"/>
     <use xlink:href="#DejaVuSans-32" transform="translate(174.853516 0.78125)"/>
    </g>
   </g>
   <g id="legend_1">
    <g id="patch_12">
     <path d="M 452.067262 144.636188 
L 622.067262 144.636188 
Q 624.067262 144.636188 624.067262 142.636188 
L 624.067262 26.211188 
Q 624.067262 24.211188 622.067262 24.211188 
L 452.067262 24.211188 
Q 450.067262 24.211188 450.067262 26.211188 
L 450.067262 142.636188 
Q 450.067262 144.636188 452.067262 144.636188 
z
" style="fill: #ffffff; opacity: 0.8; stroke: #cccccc; stroke-linejoin: miter"/>
    </g>
    <g id="line2d_30">
     <path d="M 454.067262 32.309625 
L 464.067262 32.309625 
L 474.067262 32.309625 
" style="fill: none; stroke-dasharray: 2,3.3; stroke-dashoffset: 0; stroke: #003049; stroke-width: 2"/>
     <g>
      <use xlink:href="#mc380982c92" x="464.067262" y="32.309625" style="fill: #003049; stroke: #003049"/>
     </g>
    </g>
    <g id="text_17">
     <!-- Naive $(\sigma_{min} = 0, \lambda = 0)$ -->
     <g transform="translate(482.067262 35.809625) scale(0.1 -0.1)">
      <defs>
       <path id="DejaVuSans-4e" d="M 628 4666 
L 1478 4666 
L 3547 763 
L 3547 4666 
L 4159 4666 
L 4159 0 
L 3309 0 
L 1241 3903 
L 1241 0 
L 628 0 
L 628 4666 
z
" transform="scale(0.015625)"/>
       <path id="DejaVuSans-61" d="M 2194 1759 
Q 1497 1759 1228 1600 
Q 959 1441 959 1056 
Q 959 750 1161 570 
Q 1363 391 1709 391 
Q 2188 391 2477 730 
Q 2766 1069 2766 1631 
L 2766 1759 
L 2194 1759 
z
M 3341 1997 
L 3341 0 
L 2766 0 
L 2766 531 
Q 2569 213 2275 61 
Q 1981 -91 1556 -91 
Q 1019 -91 701 211 
Q 384 513 384 1019 
Q 384 1609 779 1909 
Q 1175 2209 1959 2209 
L 2766 2209 
L 2766 2266 
Q 2766 2663 2505 2880 
Q 2244 3097 1772 3097 
Q 1472 3097 1187 3025 
Q 903 2953 641 2809 
L 641 3341 
Q 956 3463 1253 3523 
Q 1550 3584 1831 3584 
Q 2591 3584 2966 3190 
Q 3341 2797 3341 1997 
z
" transform="scale(0.015625)"/>
       <path id="DejaVuSans-69" d="M 603 3500 
L 1178 3500 
L 1178 0 
L 603 0 
L 603 3500 
z
M 603 4863 
L 1178 4863 
L 1178 4134 
L 603 4134 
L 603 4863 
z
" transform="scale(0.015625)"/>
       <path id="DejaVuSans-76" d="M 191 3500 
L 800 3500 
L 1894 563 
L 2988 3500 
L 3597 3500 
L 2284 0 
L 1503 0 
L 191 3500 
z
" transform="scale(0.015625)"/>
       <path id="DejaVuSans-65" d="M 3597 1894 
L 3597 1613 
L 953 1613 
Q 991 1019 1311 708 
Q 1631 397 2203 397 
Q 2534 397 2845 478 
Q 3156 559 3463 722 
L 3463 178 
Q 3153 47 2828 -22 
Q 2503 -91 2169 -91 
Q 1331 -91 842 396 
Q 353 884 353 1716 
Q 353 2575 817 3079 
Q 1281 3584 2069 3584 
Q 2775 3584 3186 3129 
Q 3597 2675 3597 1894 
z
M 3022 2063 
Q 3016 2534 2758 2815 
Q 2500 3097 2075 3097 
Q 1594 3097 1305 2825 
Q 1016 2553 972 2059 
L 3022 2063 
z
" transform="scale(0.015625)"/>
       <path id="DejaVuSans-Oblique-3c3" d="M 2219 3044 
Q 1744 3044 1422 2700 
Q 1081 2341 969 1747 
Q 844 1119 1044 756 
Q 1241 397 1706 397 
Q 2166 397 2503 759 
Q 2844 1122 2966 1747 
Q 3075 2319 2881 2700 
Q 2700 3044 2219 3044 
z
M 2309 3503 
L 4219 3500 
L 4106 2925 
L 3463 2925 
Q 3706 2438 3575 1747 
Q 3406 888 2884 400 
Q 2359 -91 1609 -91 
Q 856 -91 525 400 
Q 194 888 363 1747 
Q 528 2609 1050 3097 
Q 1484 3503 2309 3503 
z
" transform="scale(0.015625)"/>
       <path id="DejaVuSans-Oblique-6d" d="M 5747 2113 
L 5338 0 
L 4763 0 
L 5166 2094 
Q 5191 2228 5203 2325 
Q 5216 2422 5216 2491 
Q 5216 2772 5059 2928 
Q 4903 3084 4622 3084 
Q 4203 3084 3875 2770 
Q 3547 2456 3450 1953 
L 3066 0 
L 2491 0 
L 2900 2094 
Q 2925 2209 2937 2307 
Q 2950 2406 2950 2484 
Q 2950 2769 2794 2926 
Q 2638 3084 2363 3084 
Q 1938 3084 1609 2770 
Q 1281 2456 1184 1953 
L 800 0 
L 225 0 
L 909 3500 
L 1484 3500 
L 1375 2956 
Q 1609 3263 1923 3423 
Q 2238 3584 2597 3584 
Q 2978 3584 3223 3384 
Q 3469 3184 3519 2828 
Q 3781 3197 4126 3390 
Q 4472 3584 4856 3584 
Q 5306 3584 5551 3325 
Q 5797 3066 5797 2591 
Q 5797 2488 5784 2364 
Q 5772 2241 5747 2113 
z
" transform="scale(0.015625)"/>
       <path id="DejaVuSans-Oblique-69" d="M 1172 4863 
L 1747 4863 
L 1606 4134 
L 1031 4134 
L 1172 4863 
z
M 909 3500 
L 1484 3500 
L 800 0 
L 225 0 
L 909 3500 
z
" transform="scale(0.015625)"/>
       <path id="DejaVuSans-Oblique-6e" d="M 3566 2113 
L 3156 0 
L 2578 0 
L 2988 2091 
Q 3016 2238 3031 2350 
Q 3047 2463 3047 2528 
Q 3047 2791 2881 2937 
Q 2716 3084 2419 3084 
Q 1956 3084 1622 2776 
Q 1288 2469 1184 1941 
L 800 0 
L 225 0 
L 903 3500 
L 1478 3500 
L 1363 2950 
Q 1603 3253 1940 3418 
Q 2278 3584 2650 3584 
Q 3113 3584 3367 3334 
Q 3622 3084 3622 2631 
Q 3622 2519 3608 2391 
Q 3594 2263 3566 2113 
z
" transform="scale(0.015625)"/>
       <path id="DejaVuSans-2c" d="M 750 794 
L 1409 794 
L 1409 256 
L 897 -744 
L 494 -744 
L 750 256 
L 750 794 
z
" transform="scale(0.015625)"/>
       <path id="DejaVuSans-Oblique-3bb" d="M 2350 4316 
L 3125 0 
L 2516 0 
L 2038 2588 
L 328 0 
L -281 0 
L 1903 3356 
L 1794 3975 
Q 1725 4369 1391 4369 
L 1091 4369 
L 1184 4863 
L 1550 4856 
Q 2253 4847 2350 4316 
z
" transform="scale(0.015625)"/>
      </defs>
      <use xlink:href="#DejaVuSans-4e" transform="translate(0 0.015625)"/>
      <use xlink:href="#DejaVuSans-61" transform="translate(74.804688 0.015625)"/>
      <use xlink:href="#DejaVuSans-69" transform="translate(136.083984 0.015625)"/>
      <use xlink:href="#DejaVuSans-76" transform="translate(163.867188 0.015625)"/>
      <use xlink:href="#DejaVuSans-65" transform="translate(223.046875 0.015625)"/>
      <use xlink:href="#DejaVuSans-20" transform="translate(284.570312 0.015625)"/>
      <use xlink:href="#DejaVuSans-28" transform="translate(316.357422 0.015625)"/>
      <use xlink:href="#DejaVuSans-Oblique-3c3" transform="translate(355.371094 0.015625)"/>
      <use xlink:href="#DejaVuSans-Oblique-6d" transform="translate(418.75 -16.390625) scale(0.7)"/>
      <use xlink:href="#DejaVuSans-Oblique-69" transform="translate(486.938477 -16.390625) scale(0.7)"/>
      <use xlink:href="#DejaVuSans-Oblique-6e" transform="translate(506.386719 -16.390625) scale(0.7)"/>
      <use xlink:href="#DejaVuSans-3d" transform="translate(572.96875 0.015625)"/>
      <use xlink:href="#DejaVuSans-30" transform="translate(676.240234 0.015625)"/>
      <use xlink:href="#DejaVuSans-2c" transform="translate(739.863281 0.015625)"/>
      <use xlink:href="#DejaVuSans-Oblique-3bb" transform="translate(791.132812 0.015625)"/>
      <use xlink:href="#DejaVuSans-3d" transform="translate(869.794922 0.015625)"/>
      <use xlink:href="#DejaVuSans-30" transform="translate(973.066406 0.015625)"/>
      <use xlink:href="#DejaVuSans-29" transform="translate(1036.689453 0.015625)"/>
     </g>
    </g>
    <g id="line2d_31">
     <path d="M 454.067262 46.98775 
L 464.067262 46.98775 
L 474.067262 46.98775 
" style="fill: none; stroke: #003049; stroke-width: 2; stroke-linecap: square"/>
     <g>
      <use xlink:href="#mc380982c92" x="464.067262" y="46.98775" style="fill: #003049; stroke: #003049"/>
     </g>
    </g>
    <g id="text_18">
     <!-- scRatio $(\sigma_{min} = 0, \lambda = 0)$ -->
     <g transform="translate(482.067262 50.48775) scale(0.1 -0.1)">
      <defs>
       <path id="DejaVuSans-73" d="M 2834 3397 
L 2834 2853 
Q 2591 2978 2328 3040 
Q 2066 3103 1784 3103 
Q 1356 3103 1142 2972 
Q 928 2841 928 2578 
Q 928 2378 1081 2264 
Q 1234 2150 1697 2047 
L 1894 2003 
Q 2506 1872 2764 1633 
Q 3022 1394 3022 966 
Q 3022 478 2636 193 
Q 2250 -91 1575 -91 
Q 1294 -91 989 -36 
Q 684 19 347 128 
L 347 722 
Q 666 556 975 473 
Q 1284 391 1588 391 
Q 1994 391 2212 530 
Q 2431 669 2431 922 
Q 2431 1156 2273 1281 
Q 2116 1406 1581 1522 
L 1381 1569 
Q 847 1681 609 1914 
Q 372 2147 372 2553 
Q 372 3047 722 3315 
Q 1072 3584 1716 3584 
Q 2034 3584 2315 3537 
Q 2597 3491 2834 3397 
z
" transform="scale(0.015625)"/>
       <path id="DejaVuSans-63" d="M 3122 3366 
L 3122 2828 
Q 2878 2963 2633 3030 
Q 2388 3097 2138 3097 
Q 1578 3097 1268 2742 
Q 959 2388 959 1747 
Q 959 1106 1268 751 
Q 1578 397 2138 397 
Q 2388 397 2633 464 
Q 2878 531 3122 666 
L 3122 134 
Q 2881 22 2623 -34 
Q 2366 -91 2075 -91 
Q 1284 -91 818 406 
Q 353 903 353 1747 
Q 353 2603 823 3093 
Q 1294 3584 2113 3584 
Q 2378 3584 2631 3529 
Q 2884 3475 3122 3366 
z
" transform="scale(0.015625)"/>
       <path id="DejaVuSans-52" d="M 2841 2188 
Q 3044 2119 3236 1894 
Q 3428 1669 3622 1275 
L 4263 0 
L 3584 0 
L 2988 1197 
Q 2756 1666 2539 1819 
Q 2322 1972 1947 1972 
L 1259 1972 
L 1259 0 
L 628 0 
L 628 4666 
L 2053 4666 
Q 2853 4666 3247 4331 
Q 3641 3997 3641 3322 
Q 3641 2881 3436 2590 
Q 3231 2300 2841 2188 
z
M 1259 4147 
L 1259 2491 
L 2053 2491 
Q 2509 2491 2742 2702 
Q 2975 2913 2975 3322 
Q 2975 3731 2742 3939 
Q 2509 4147 2053 4147 
L 1259 4147 
z
" transform="scale(0.015625)"/>
       <path id="DejaVuSans-74" d="M 1172 4494 
L 1172 3500 
L 2356 3500 
L 2356 3053 
L 1172 3053 
L 1172 1153 
Q 1172 725 1289 603 
Q 1406 481 1766 481 
L 2356 481 
L 2356 0 
L 1766 0 
Q 1100 0 847 248 
Q 594 497 594 1153 
L 594 3053 
L 172 3053 
L 172 3500 
L 594 3500 
L 594 4494 
L 1172 4494 
z
" transform="scale(0.015625)"/>
      </defs>
      <use xlink:href="#DejaVuSans-73" transform="translate(0 0.015625)"/>
      <use xlink:href="#DejaVuSans-63" transform="translate(52.099609 0.015625)"/>
      <use xlink:href="#DejaVuSans-52" transform="translate(107.080078 0.015625)"/>
      <use xlink:href="#DejaVuSans-61" transform="translate(176.5625 0.015625)"/>
      <use xlink:href="#DejaVuSans-74" transform="translate(237.841797 0.015625)"/>
      <use xlink:href="#DejaVuSans-69" transform="translate(277.050781 0.015625)"/>
      <use xlink:href="#DejaVuSans-6f" transform="translate(304.833984 0.015625)"/>
      <use xlink:href="#DejaVuSans-20" transform="translate(366.015625 0.015625)"/>
      <use xlink:href="#DejaVuSans-28" transform="translate(397.802734 0.015625)"/>
      <use xlink:href="#DejaVuSans-Oblique-3c3" transform="translate(436.816406 0.015625)"/>
      <use xlink:href="#DejaVuSans-Oblique-6d" transform="translate(500.195312 -16.390625) scale(0.7)"/>
      <use xlink:href="#DejaVuSans-Oblique-69" transform="translate(568.383789 -16.390625) scale(0.7)"/>
      <use xlink:href="#DejaVuSans-Oblique-6e" transform="translate(587.832031 -16.390625) scale(0.7)"/>
      <use xlink:href="#DejaVuSans-3d" transform="translate(654.414062 0.015625)"/>
      <use xlink:href="#DejaVuSans-30" transform="translate(757.685547 0.015625)"/>
      <use xlink:href="#DejaVuSans-2c" transform="translate(821.308594 0.015625)"/>
      <use xlink:href="#DejaVuSans-Oblique-3bb" transform="translate(872.578125 0.015625)"/>
      <use xlink:href="#DejaVuSans-3d" transform="translate(951.240234 0.015625)"/>
      <use xlink:href="#DejaVuSans-30" transform="translate(1054.511719 0.015625)"/>
      <use xlink:href="#DejaVuSans-29" transform="translate(1118.134766 0.015625)"/>
     </g>
    </g>
    <g id="line2d_32">
     <path d="M 454.067262 61.665875 
L 464.067262 61.665875 
L 474.067262 61.665875 
" style="fill: none; stroke-dasharray: 2,3.3; stroke-dashoffset: 0; stroke: #669bbc; stroke-width: 2"/>
     <g>
      <use xlink:href="#mcda095ab1f" x="464.067262" y="61.665875" style="fill: #669bbc; stroke: #669bbc"/>
     </g>
    </g>
    <g id="text_19">
     <!-- Naive $(\sigma_{min} = 0.001, \lambda = 0)$ -->
     <g transform="translate(482.067262 65.165875) scale(0.1 -0.1)">
      <defs>
       <path id="DejaVuSans-2e" d="M 684 794 
L 1344 794 
L 1344 0 
L 684 0 
L 684 794 
z
" transform="scale(0.015625)"/>
      </defs>
      <use xlink:href="#DejaVuSans-4e" transform="translate(0 0.015625)"/>
      <use xlink:href="#DejaVuSans-61" transform="translate(74.804688 0.015625)"/>
      <use xlink:href="#DejaVuSans-69" transform="translate(136.083984 0.015625)"/>
      <use xlink:href="#DejaVuSans-76" transform="translate(163.867188 0.015625)"/>
      <use xlink:href="#DejaVuSans-65" transform="translate(223.046875 0.015625)"/>
      <use xlink:href="#DejaVuSans-20" transform="translate(284.570312 0.015625)"/>
      <use xlink:href="#DejaVuSans-28" transform="translate(316.357422 0.015625)"/>
      <use xlink:href="#DejaVuSans-Oblique-3c3" transform="translate(355.371094 0.015625)"/>
      <use xlink:href="#DejaVuSans-Oblique-6d" transform="translate(418.75 -16.390625) scale(0.7)"/>
      <use xlink:href="#DejaVuSans-Oblique-69" transform="translate(486.938477 -16.390625) scale(0.7)"/>
      <use xlink:href="#DejaVuSans-Oblique-6e" transform="translate(506.386719 -16.390625) scale(0.7)"/>
      <use xlink:href="#DejaVuSans-3d" transform="translate(572.96875 0.015625)"/>
      <use xlink:href="#DejaVuSans-30" transform="translate(676.240234 0.015625)"/>
      <use xlink:href="#DejaVuSans-2e" transform="translate(739.863281 0.015625)"/>
      <use xlink:href="#DejaVuSans-30" transform="translate(771.650391 0.015625)"/>
      <use xlink:href="#DejaVuSans-30" transform="translate(835.273438 0.015625)"/>
      <use xlink:href="#DejaVuSans-31" transform="translate(898.896484 0.015625)"/>
      <use xlink:href="#DejaVuSans-2c" transform="translate(962.519531 0.015625)"/>
      <use xlink:href="#DejaVuSans-Oblique-3bb" transform="translate(1013.789062 0.015625)"/>
      <use xlink:href="#DejaVuSans-3d" transform="translate(1092.451172 0.015625)"/>
      <use xlink:href="#DejaVuSans-30" transform="translate(1195.722656 0.015625)"/>
      <use xlink:href="#DejaVuSans-29" transform="translate(1259.345703 0.015625)"/>
     </g>
    </g>
    <g id="line2d_33">
     <path d="M 454.067262 76.344 
L 464.067262 76.344 
L 474.067262 76.344 
" style="fill: none; stroke: #669bbc; stroke-width: 2; stroke-linecap: square"/>
     <g>
      <use xlink:href="#mcda095ab1f" x="464.067262" y="76.344" style="fill: #669bbc; stroke: #669bbc"/>
     </g>
    </g>
    <g id="text_20">
     <!-- scRatio $(\sigma_{min} = 0.001, \lambda = 0)$ -->
     <g transform="translate(482.067262 79.844) scale(0.1 -0.1)">
      <use xlink:href="#DejaVuSans-73" transform="translate(0 0.015625)"/>
      <use xlink:href="#DejaVuSans-63" transform="translate(52.099609 0.015625)"/>
      <use xlink:href="#DejaVuSans-52" transform="translate(107.080078 0.015625)"/>
      <use xlink:href="#DejaVuSans-61" transform="translate(176.5625 0.015625)"/>
      <use xlink:href="#DejaVuSans-74" transform="translate(237.841797 0.015625)"/>
      <use xlink:href="#DejaVuSans-69" transform="translate(277.050781 0.015625)"/>
      <use xlink:href="#DejaVuSans-6f" transform="translate(304.833984 0.015625)"/>
      <use xlink:href="#DejaVuSans-20" transform="translate(366.015625 0.015625)"/>
      <use xlink:href="#DejaVuSans-28" transform="translate(397.802734 0.015625)"/>
      <use xlink:href="#DejaVuSans-Oblique-3c3" transform="translate(436.816406 0.015625)"/>
      <use xlink:href="#DejaVuSans-Oblique-6d" transform="translate(500.195312 -16.390625) scale(0.7)"/>
      <use xlink:href="#DejaVuSans-Oblique-69" transform="translate(568.383789 -16.390625) scale(0.7)"/>
      <use xlink:href="#DejaVuSans-Oblique-6e" transform="translate(587.832031 -16.390625) scale(0.7)"/>
      <use xlink:href="#DejaVuSans-3d" transform="translate(654.414062 0.015625)"/>
      <use xlink:href="#DejaVuSans-30" transform="translate(757.685547 0.015625)"/>
      <use xlink:href="#DejaVuSans-2e" transform="translate(821.308594 0.015625)"/>
      <use xlink:href="#DejaVuSans-30" transform="translate(853.095703 0.015625)"/>
      <use xlink:href="#DejaVuSans-30" transform="translate(916.71875 0.015625)"/>
      <use xlink:href="#DejaVuSans-31" transform="translate(980.341797 0.015625)"/>
      <use xlink:href="#DejaVuSans-2c" transform="translate(1043.964844 0.015625)"/>
      <use xlink:href="#DejaVuSans-Oblique-3bb" transform="translate(1095.234375 0.015625)"/>
      <use xlink:href="#DejaVuSans-3d" transform="translate(1173.896484 0.015625)"/>
      <use xlink:href="#DejaVuSans-30" transform="translate(1277.167969 0.015625)"/>
      <use xlink:href="#DejaVuSans-29" transform="translate(1340.791016 0.015625)"/>
     </g>
    </g>
    <g id="line2d_34">
     <path d="M 454.067262 91.022125 
L 464.067262 91.022125 
L 474.067262 91.022125 
" style="fill: none; stroke-dasharray: 2,3.3; stroke-dashoffset: 0; stroke: #c1121f; stroke-width: 2"/>
     <g>
      <use xlink:href="#m81fd65d236" x="464.067262" y="91.022125" style="fill: #c1121f; stroke: #c1121f"/>
     </g>
    </g>
    <g id="text_21">
     <!-- Naive $(\sigma_{min} = 0, \lambda = 0.1)$ -->
     <g transform="translate(482.067262 94.522125) scale(0.1 -0.1)">
      <use xlink:href="#DejaVuSans-4e" transform="translate(0 0.015625)"/>
      <use xlink:href="#DejaVuSans-61" transform="translate(74.804688 0.015625)"/>
      <use xlink:href="#DejaVuSans-69" transform="translate(136.083984 0.015625)"/>
      <use xlink:href="#DejaVuSans-76" transform="translate(163.867188 0.015625)"/>
      <use xlink:href="#DejaVuSans-65" transform="translate(223.046875 0.015625)"/>
      <use xlink:href="#DejaVuSans-20" transform="translate(284.570312 0.015625)"/>
      <use xlink:href="#DejaVuSans-28" transform="translate(316.357422 0.015625)"/>
      <use xlink:href="#DejaVuSans-Oblique-3c3" transform="translate(355.371094 0.015625)"/>
      <use xlink:href="#DejaVuSans-Oblique-6d" transform="translate(418.75 -16.390625) scale(0.7)"/>
      <use xlink:href="#DejaVuSans-Oblique-69" transform="translate(486.938477 -16.390625) scale(0.7)"/>
      <use xlink:href="#DejaVuSans-Oblique-6e" transform="translate(506.386719 -16.390625) scale(0.7)"/>
      <use xlink:href="#DejaVuSans-3d" transform="translate(572.96875 0.015625)"/>
      <use xlink:href="#DejaVuSans-30" transform="translate(676.240234 0.015625)"/>
      <use xlink:href="#DejaVuSans-2c" transform="translate(739.863281 0.015625)"/>
      <use xlink:href="#DejaVuSans-Oblique-3bb" transform="translate(791.132812 0.015625)"/>
      <use xlink:href="#DejaVuSans-3d" transform="translate(869.794922 0.015625)"/>
      <use xlink:href="#DejaVuSans-30" transform="translate(973.066406 0.015625)"/>
      <use xlink:href="#DejaVuSans-2e" transform="translate(1036.689453 0.015625)"/>
      <use xlink:href="#DejaVuSans-31" transform="translate(1068.476562 0.015625)"/>
      <use xlink:href="#DejaVuSans-29" transform="translate(1132.099609 0.015625)"/>
     </g>
    </g>
    <g id="line2d_35">
     <path d="M 454.067262 105.70025 
L 464.067262 105.70025 
L 474.067262 105.70025 
" style="fill: none; stroke: #c1121f; stroke-width: 2; stroke-linecap: square"/>
     <g>
      <use xlink:href="#m81fd65d236" x="464.067262" y="105.70025" style="fill: #c1121f; stroke: #c1121f"/>
     </g>
    </g>
    <g id="text_22">
     <!-- scRatio $(\sigma_{min} = 0, \lambda = 0.1)$ -->
     <g transform="translate(482.067262 109.20025) scale(0.1 -0.1)">
      <use xlink:href="#DejaVuSans-73" transform="translate(0 0.015625)"/>
      <use xlink:href="#DejaVuSans-63" transform="translate(52.099609 0.015625)"/>
      <use xlink:href="#DejaVuSans-52" transform="translate(107.080078 0.015625)"/>
      <use xlink:href="#DejaVuSans-61" transform="translate(176.5625 0.015625)"/>
      <use xlink:href="#DejaVuSans-74" transform="translate(237.841797 0.015625)"/>
      <use xlink:href="#DejaVuSans-69" transform="translate(277.050781 0.015625)"/>
      <use xlink:href="#DejaVuSans-6f" transform="translate(304.833984 0.015625)"/>
      <use xlink:href="#DejaVuSans-20" transform="translate(366.015625 0.015625)"/>
      <use xlink:href="#DejaVuSans-28" transform="translate(397.802734 0.015625)"/>
      <use xlink:href="#DejaVuSans-Oblique-3c3" transform="translate(436.816406 0.015625)"/>
      <use xlink:href="#DejaVuSans-Oblique-6d" transform="translate(500.195312 -16.390625) scale(0.7)"/>
      <use xlink:href="#DejaVuSans-Oblique-69" transform="translate(568.383789 -16.390625) scale(0.7)"/>
      <use xlink:href="#DejaVuSans-Oblique-6e" transform="translate(587.832031 -16.390625) scale(0.7)"/>
      <use xlink:href="#DejaVuSans-3d" transform="translate(654.414062 0.015625)"/>
      <use xlink:href="#DejaVuSans-30" transform="translate(757.685547 0.015625)"/>
      <use xlink:href="#DejaVuSans-2c" transform="translate(821.308594 0.015625)"/>
      <use xlink:href="#DejaVuSans-Oblique-3bb" transform="translate(872.578125 0.015625)"/>
      <use xlink:href="#DejaVuSans-3d" transform="translate(951.240234 0.015625)"/>
      <use xlink:href="#DejaVuSans-30" transform="translate(1054.511719 0.015625)"/>
      <use xlink:href="#DejaVuSans-2e" transform="translate(1118.134766 0.015625)"/>
      <use xlink:href="#DejaVuSans-31" transform="translate(1149.921875 0.015625)"/>
      <use xlink:href="#DejaVuSans-29" transform="translate(1213.544922 0.015625)"/>
     </g>
    </g>
    <g id="line2d_36">
     <path d="M 454.067262 120.378375 
L 464.067262 120.378375 
L 474.067262 120.378375 
" style="fill: none; stroke-dasharray: 2,3.3; stroke-dashoffset: 0; stroke: #f28e79; stroke-width: 2"/>
     <g>
      <use xlink:href="#m2ab67744e6" x="464.067262" y="120.378375" style="fill: #f28e79; stroke: #f28e79"/>
     </g>
    </g>
    <g id="text_23">
     <!-- CTSM with SB paths -->
     <g transform="translate(482.067262 123.878375) scale(0.1 -0.1)">
      <defs>
       <path id="DejaVuSans-43" d="M 4122 4306 
L 4122 3641 
Q 3803 3938 3442 4084 
Q 3081 4231 2675 4231 
Q 1875 4231 1450 3742 
Q 1025 3253 1025 2328 
Q 1025 1406 1450 917 
Q 1875 428 2675 428 
Q 3081 428 3442 575 
Q 3803 722 4122 1019 
L 4122 359 
Q 3791 134 3420 21 
Q 3050 -91 2638 -91 
Q 1578 -91 968 557 
Q 359 1206 359 2328 
Q 359 3453 968 4101 
Q 1578 4750 2638 4750 
Q 3056 4750 3426 4639 
Q 3797 4528 4122 4306 
z
" transform="scale(0.015625)"/>
       <path id="DejaVuSans-54" d="M -19 4666 
L 3928 4666 
L 3928 4134 
L 2272 4134 
L 2272 0 
L 1638 0 
L 1638 4134 
L -19 4134 
L -19 4666 
z
" transform="scale(0.015625)"/>
       <path id="DejaVuSans-77" d="M 269 3500 
L 844 3500 
L 1563 769 
L 2278 3500 
L 2956 3500 
L 3675 769 
L 4391 3500 
L 4966 3500 
L 4050 0 
L 3372 0 
L 2619 2869 
L 1863 0 
L 1184 0 
L 269 3500 
z
" transform="scale(0.015625)"/>
       <path id="DejaVuSans-68" d="M 3513 2113 
L 3513 0 
L 2938 0 
L 2938 2094 
Q 2938 2591 2744 2837 
Q 2550 3084 2163 3084 
Q 1697 3084 1428 2787 
Q 1159 2491 1159 1978 
L 1159 0 
L 581 0 
L 581 4863 
L 1159 4863 
L 1159 2956 
Q 1366 3272 1645 3428 
Q 1925 3584 2291 3584 
Q 2894 3584 3203 3211 
Q 3513 2838 3513 2113 
z
" transform="scale(0.015625)"/>
       <path id="DejaVuSans-42" d="M 1259 2228 
L 1259 519 
L 2272 519 
Q 2781 519 3026 730 
Q 3272 941 3272 1375 
Q 3272 1813 3026 2020 
Q 2781 2228 2272 2228 
L 1259 2228 
z
M 1259 4147 
L 1259 2741 
L 2194 2741 
Q 2656 2741 2882 2914 
Q 3109 3088 3109 3444 
Q 3109 3797 2882 3972 
Q 2656 4147 2194 4147 
L 1259 4147 
z
M 628 4666 
L 2241 4666 
Q 2963 4666 3353 4366 
Q 3744 4066 3744 3513 
Q 3744 3084 3544 2831 
Q 3344 2578 2956 2516 
Q 3422 2416 3680 2098 
Q 3938 1781 3938 1306 
Q 3938 681 3513 340 
Q 3088 0 2303 0 
L 628 0 
L 628 4666 
z
" transform="scale(0.015625)"/>
       <path id="DejaVuSans-70" d="M 1159 525 
L 1159 -1331 
L 581 -1331 
L 581 3500 
L 1159 3500 
L 1159 2969 
Q 1341 3281 1617 3432 
Q 1894 3584 2278 3584 
Q 2916 3584 3314 3078 
Q 3713 2572 3713 1747 
Q 3713 922 3314 415 
Q 2916 -91 2278 -91 
Q 1894 -91 1617 61 
Q 1341 213 1159 525 
z
M 3116 1747 
Q 3116 2381 2855 2742 
Q 2594 3103 2138 3103 
Q 1681 3103 1420 2742 
Q 1159 2381 1159 1747 
Q 1159 1113 1420 752 
Q 1681 391 2138 391 
Q 2594 391 2855 752 
Q 3116 1113 3116 1747 
z
" transform="scale(0.015625)"/>
      </defs>
      <use xlink:href="#DejaVuSans-43"/>
      <use xlink:href="#DejaVuSans-54" transform="translate(69.824219 0)"/>
      <use xlink:href="#DejaVuSans-53" transform="translate(130.908203 0)"/>
      <use xlink:href="#DejaVuSans-4d" transform="translate(194.384766 0)"/>
      <use xlink:href="#DejaVuSans-20" transform="translate(280.664062 0)"/>
      <use xlink:href="#DejaVuSans-77" transform="translate(312.451172 0)"/>
      <use xlink:href="#DejaVuSans-69" transform="translate(394.238281 0)"/>
      <use xlink:href="#DejaVuSans-74" transform="translate(422.021484 0)"/>
      <use xlink:href="#DejaVuSans-68" transform="translate(461.230469 0)"/>
      <use xlink:href="#DejaVuSans-20" transform="translate(524.609375 0)"/>
      <use xlink:href="#DejaVuSans-53" transform="translate(556.396484 0)"/>
      <use xlink:href="#DejaVuSans-42" transform="translate(619.873047 0)"/>
      <use xlink:href="#DejaVuSans-20" transform="translate(688.476562 0)"/>
      <use xlink:href="#DejaVuSans-70" transform="translate(720.263672 0)"/>
      <use xlink:href="#DejaVuSans-61" transform="translate(783.740234 0)"/>
      <use xlink:href="#DejaVuSans-74" transform="translate(845.019531 0)"/>
      <use xlink:href="#DejaVuSans-68" transform="translate(884.228516 0)"/>
      <use xlink:href="#DejaVuSans-73" transform="translate(947.607422 0)"/>
     </g>
    </g>
    <g id="line2d_37">
     <path d="M 454.067262 135.0565 
L 464.067262 135.0565 
L 474.067262 135.0565 
" style="fill: none; stroke-dasharray: 2,3.3; stroke-dashoffset: 0; stroke: #f07229; stroke-width: 2"/>
     <g>
      <use xlink:href="#md83f367551" x="464.067262" y="135.0565" style="fill: #f07229; stroke: #f07229"/>
     </g>
    </g>
    <g id="text_24">
     <!-- TSM with SB paths -->
     <g transform="translate(482.067262 138.5565) scale(0.1 -0.1)">
      <use xlink:href="#DejaVuSans-54"/>
      <use xlink:href="#DejaVuSans-53" transform="translate(61.083984 0)"/>
      <use xlink:href="#DejaVuSans-4d" transform="translate(124.560547 0)"/>
      <use xlink:href="#DejaVuSans-20" transform="translate(210.839844 0)"/>
      <use xlink:href="#DejaVuSans-77" transform="translate(242.626953 0)"/>
      <use xlink:href="#DejaVuSans-69" transform="translate(324.414062 0)"/>
      <use xlink:href="#DejaVuSans-74" transform="translate(352.197266 0)"/>
      <use xlink:href="#DejaVuSans-68" transform="translate(391.40625 0)"/>
      <use xlink:href="#DejaVuSans-20" transform="translate(454.785156 0)"/>
      <use xlink:href="#DejaVuSans-53" transform="translate(486.572266 0)"/>
      <use xlink:href="#DejaVuSans-42" transform="translate(550.048828 0)"/>
      <use xlink:href="#DejaVuSans-20" transform="translate(618.652344 0)"/>
      <use xlink:href="#DejaVuSans-70" transform="translate(650.439453 0)"/>
      <use xlink:href="#DejaVuSans-61" transform="translate(713.916016 0)"/>
      <use xlink:href="#DejaVuSans-74" transform="translate(775.195312 0)"/>
      <use xlink:href="#DejaVuSans-68" transform="translate(814.404297 0)"/>
      <use xlink:href="#DejaVuSans-73" transform="translate(877.783203 0)"/>
     </g>
    </g>
   </g>
  </g>
 </g>
 <defs>
  <clipPath id="pca3d0992a1">
   <rect x="59.2475" y="26.877187" width="164.018934" height="153.32"/>
  </clipPath>
  <clipPath id="p01cb1cf424">
   <rect x="264.646434" y="26.877187" width="164.018934" height="153.32"/>
  </clipPath>
 </defs>
</svg>
