<?xml version="1.0" encoding="utf-8" standalone="no"?>
<!DOCTYPE svg PUBLIC "-//W3C//DTD SVG 1.1//EN"
  "http://www.w3.org/Graphics/SVG/1.1/DTD/svg11.dtd">
<svg xmlns:xlink="http://www.w3.org/1999/xlink" width="271.485pt" height="560.119259pt" viewBox="0 0 271.485 560.119259" xmlns="http://www.w3.org/2000/svg" version="1.1">
 <metadata>
  <rdf:RDF xmlns:dc="http://purl.org/dc/elements/1.1/" xmlns:cc="http://creativecommons.org/ns#" xmlns:rdf="http://www.w3.org/1999/02/22-rdf-syntax-ns#">
   <cc:Work>
    <dc:type rdf:resource="http://purl.org/dc/dcmitype/StillImage"/>
    <dc:date>2026-01-28T14:42:13.264122</dc:date>
    <dc:format>image/svg+xml</dc:format>
    <dc:creator>
     <cc:Agent>
      <dc:title>Matplotlib v3.10.3, https://matplotlib.org/</dc:title>
     </cc:Agent>
    </dc:creator>
   </cc:Work>
  </rdf:RDF>
 </metadata>
 <defs>
  <style type="text/css">*{stroke-linejoin: round; stroke-linecap: butt}</style>
 </defs>
 <g id="figure_1">
  <g id="patch_1">
   <path d="M 0 560.119259 
L 271.485 560.119259 
L 271.485 0 
L 0 0 
z
" style="fill: #ffffff"/>
  </g>
  <g id="axes_1">
   <g id="patch_2">
    <path d="M 51.5 532.369884 
L 264.285 532.369884 
L 264.285 12.461804 
L 51.5 12.461804 
z
" style="fill: #ffffff"/>
   </g>
   <g id="matplotlib.axis_1">
    <g id="xtick_1">
     <g id="line2d_1">
      <defs>
       <path id="m6e7638c739" d="M 0 0 
L 0 3.5 
" style="stroke: #000000; stroke-width: 0.8"/>
      </defs>
      <g>
       <use xlink:href="#m6e7638c739" x="78.098125" y="532.369884" style="stroke: #000000; stroke-width: 0.8"/>
      </g>
     </g>
     <g id="text_1">
      <!-- 1 -->
      <g transform="translate(73.644375 550.007696) scale(0.14 -0.14)">
       <defs>
        <path id="DejaVuSans-31" d="M 794 531 
L 1825 531 
L 1825 4091 
L 703 3866 
L 703 4441 
L 1819 4666 
L 2450 4666 
L 2450 531 
L 3481 531 
L 3481 0 
L 794 0 
L 794 531 
z
" transform="scale(0.015625)"/>
       </defs>
       <use xlink:href="#DejaVuSans-31"/>
      </g>
     </g>
    </g>
    <g id="xtick_2">
     <g id="line2d_2">
      <g>
       <use xlink:href="#m6e7638c739" x="131.294375" y="532.369884" style="stroke: #000000; stroke-width: 0.8"/>
      </g>
     </g>
     <g id="text_2">
      <!-- 2 -->
      <g transform="translate(126.840625 550.007696) scale(0.14 -0.14)">
       <defs>
        <path id="DejaVuSans-32" d="M 1228 531 
L 3431 531 
L 3431 0 
L 469 0 
L 469 531 
Q 828 903 1448 1529 
Q 2069 2156 2228 2338 
Q 2531 2678 2651 2914 
Q 2772 3150 2772 3378 
Q 2772 3750 2511 3984 
Q 2250 4219 1831 4219 
Q 1534 4219 1204 4116 
Q 875 4013 500 3803 
L 500 4441 
Q 881 4594 1212 4672 
Q 1544 4750 1819 4750 
Q 2544 4750 2975 4387 
Q 3406 4025 3406 3419 
Q 3406 3131 3298 2873 
Q 3191 2616 2906 2266 
Q 2828 2175 2409 1742 
Q 1991 1309 1228 531 
z
" transform="scale(0.015625)"/>
       </defs>
       <use xlink:href="#DejaVuSans-32"/>
      </g>
     </g>
    </g>
    <g id="xtick_3">
     <g id="line2d_3">
      <g>
       <use xlink:href="#m6e7638c739" x="184.490625" y="532.369884" style="stroke: #000000; stroke-width: 0.8"/>
      </g>
     </g>
     <g id="text_3">
      <!-- 3 -->
      <g transform="translate(180.036875 550.007696) scale(0.14 -0.14)">
       <defs>
        <path id="DejaVuSans-33" d="M 2597 2516 
Q 3050 2419 3304 2112 
Q 3559 1806 3559 1356 
Q 3559 666 3084 287 
Q 2609 -91 1734 -91 
Q 1441 -91 1130 -33 
Q 819 25 488 141 
L 488 750 
Q 750 597 1062 519 
Q 1375 441 1716 441 
Q 2309 441 2620 675 
Q 2931 909 2931 1356 
Q 2931 1769 2642 2001 
Q 2353 2234 1838 2234 
L 1294 2234 
L 1294 2753 
L 1863 2753 
Q 2328 2753 2575 2939 
Q 2822 3125 2822 3475 
Q 2822 3834 2567 4026 
Q 2313 4219 1838 4219 
Q 1578 4219 1281 4162 
Q 984 4106 628 3988 
L 628 4550 
Q 988 4650 1302 4700 
Q 1616 4750 1894 4750 
Q 2613 4750 3031 4423 
Q 3450 4097 3450 3541 
Q 3450 3153 3228 2886 
Q 3006 2619 2597 2516 
z
" transform="scale(0.015625)"/>
       </defs>
       <use xlink:href="#DejaVuSans-33"/>
      </g>
     </g>
    </g>
    <g id="xtick_4">
     <g id="line2d_4">
      <g>
       <use xlink:href="#m6e7638c739" x="237.686875" y="532.369884" style="stroke: #000000; stroke-width: 0.8"/>
      </g>
     </g>
     <g id="text_4">
      <!-- 4 -->
      <g transform="translate(233.233125 550.007696) scale(0.14 -0.14)">
       <defs>
        <path id="DejaVuSans-34" d="M 2419 4116 
L 825 1625 
L 2419 1625 
L 2419 4116 
z
M 2253 4666 
L 3047 4666 
L 3047 1625 
L 3713 1625 
L 3713 1100 
L 3047 1100 
L 3047 0 
L 2419 0 
L 2419 1100 
L 313 1100 
L 313 1709 
L 2253 4666 
z
" transform="scale(0.015625)"/>
       </defs>
       <use xlink:href="#DejaVuSans-34"/>
      </g>
     </g>
    </g>
   </g>
   <g id="matplotlib.axis_2">
    <g id="ytick_1">
     <g id="line2d_5">
      <defs>
       <path id="mb62a752e9b" d="M 0 0 
L -3.5 0 
" style="stroke: #000000; stroke-width: 0.8"/>
      </defs>
      <g>
       <use xlink:href="#mb62a752e9b" x="51.5" y="508.738416" style="stroke: #000000; stroke-width: 0.8"/>
      </g>
     </g>
     <g id="text_5">
      <!-- 0 -->
      <g transform="translate(35.5925 514.057323) scale(0.14 -0.14)">
       <defs>
        <path id="DejaVuSans-30" d="M 2034 4250 
Q 1547 4250 1301 3770 
Q 1056 3291 1056 2328 
Q 1056 1369 1301 889 
Q 1547 409 2034 409 
Q 2525 409 2770 889 
Q 3016 1369 3016 2328 
Q 3016 3291 2770 3770 
Q 2525 4250 2034 4250 
z
M 2034 4750 
Q 2819 4750 3233 4129 
Q 3647 3509 3647 2328 
Q 3647 1150 3233 529 
Q 2819 -91 2034 -91 
Q 1250 -91 836 529 
Q 422 1150 422 2328 
Q 422 3509 836 4129 
Q 1250 4750 2034 4750 
z
" transform="scale(0.015625)"/>
       </defs>
       <use xlink:href="#DejaVuSans-30"/>
      </g>
     </g>
    </g>
    <g id="ytick_2">
     <g id="line2d_6">
      <g>
       <use xlink:href="#mb62a752e9b" x="51.5" y="409.494514" style="stroke: #000000; stroke-width: 0.8"/>
      </g>
     </g>
     <g id="text_6">
      <!-- 5 -->
      <g transform="translate(35.5925 414.813421) scale(0.14 -0.14)">
       <defs>
        <path id="DejaVuSans-35" d="M 691 4666 
L 3169 4666 
L 3169 4134 
L 1269 4134 
L 1269 2991 
Q 1406 3038 1543 3061 
Q 1681 3084 1819 3084 
Q 2600 3084 3056 2656 
Q 3513 2228 3513 1497 
Q 3513 744 3044 326 
Q 2575 -91 1722 -91 
Q 1428 -91 1123 -41 
Q 819 9 494 109 
L 494 744 
Q 775 591 1075 516 
Q 1375 441 1709 441 
Q 2250 441 2565 725 
Q 2881 1009 2881 1497 
Q 2881 1984 2565 2268 
Q 2250 2553 1709 2553 
Q 1456 2553 1204 2497 
Q 953 2441 691 2322 
L 691 4666 
z
" transform="scale(0.015625)"/>
       </defs>
       <use xlink:href="#DejaVuSans-35"/>
      </g>
     </g>
    </g>
    <g id="ytick_3">
     <g id="line2d_7">
      <g>
       <use xlink:href="#mb62a752e9b" x="51.5" y="310.250612" style="stroke: #000000; stroke-width: 0.8"/>
      </g>
     </g>
     <g id="text_7">
      <!-- 10 -->
      <g transform="translate(26.685 315.569519) scale(0.14 -0.14)">
       <use xlink:href="#DejaVuSans-31"/>
       <use xlink:href="#DejaVuSans-30" transform="translate(63.623047 0)"/>
      </g>
     </g>
    </g>
    <g id="ytick_4">
     <g id="line2d_8">
      <g>
       <use xlink:href="#mb62a752e9b" x="51.5" y="211.00671" style="stroke: #000000; stroke-width: 0.8"/>
      </g>
     </g>
     <g id="text_8">
      <!-- 15 -->
      <g transform="translate(26.685 216.325617) scale(0.14 -0.14)">
       <use xlink:href="#DejaVuSans-31"/>
       <use xlink:href="#DejaVuSans-35" transform="translate(63.623047 0)"/>
      </g>
     </g>
    </g>
    <g id="ytick_5">
     <g id="line2d_9">
      <g>
       <use xlink:href="#mb62a752e9b" x="51.5" y="111.762808" style="stroke: #000000; stroke-width: 0.8"/>
      </g>
     </g>
     <g id="text_9">
      <!-- 20 -->
      <g transform="translate(26.685 117.081715) scale(0.14 -0.14)">
       <use xlink:href="#DejaVuSans-32"/>
       <use xlink:href="#DejaVuSans-30" transform="translate(63.623047 0)"/>
      </g>
     </g>
    </g>
    <g id="ytick_6">
     <g id="line2d_10">
      <g>
       <use xlink:href="#mb62a752e9b" x="51.5" y="12.518906" style="stroke: #000000; stroke-width: 0.8"/>
      </g>
     </g>
     <g id="text_10">
      <!-- 25 -->
      <g transform="translate(26.685 17.837813) scale(0.14 -0.14)">
       <use xlink:href="#DejaVuSans-32"/>
       <use xlink:href="#DejaVuSans-35" transform="translate(63.623047 0)"/>
      </g>
     </g>
    </g>
    <g id="text_11">
     <!-- Absolute log-ratio -->
     <g transform="translate(19.3575 343.450844) rotate(-90) scale(0.16 -0.16)">
      <defs>
       <path id="DejaVuSans-41" d="M 2188 4044 
L 1331 1722 
L 3047 1722 
L 2188 4044 
z
M 1831 4666 
L 2547 4666 
L 4325 0 
L 3669 0 
L 3244 1197 
L 1141 1197 
L 716 0 
L 50 0 
L 1831 4666 
z
" transform="scale(0.015625)"/>
       <path id="DejaVuSans-62" d="M 3116 1747 
Q 3116 2381 2855 2742 
Q 2594 3103 2138 3103 
Q 1681 3103 1420 2742 
Q 1159 2381 1159 1747 
Q 1159 1113 1420 752 
Q 1681 391 2138 391 
Q 2594 391 2855 752 
Q 3116 1113 3116 1747 
z
M 1159 2969 
Q 1341 3281 1617 3432 
Q 1894 3584 2278 3584 
Q 2916 3584 3314 3078 
Q 3713 2572 3713 1747 
Q 3713 922 3314 415 
Q 2916 -91 2278 -91 
Q 1894 -91 1617 61 
Q 1341 213 1159 525 
L 1159 0 
L 581 0 
L 581 4863 
L 1159 4863 
L 1159 2969 
z
" transform="scale(0.015625)"/>
       <path id="DejaVuSans-73" d="M 2834 3397 
L 2834 2853 
Q 2591 2978 2328 3040 
Q 2066 3103 1784 3103 
Q 1356 3103 1142 2972 
Q 928 2841 928 2578 
Q 928 2378 1081 2264 
Q 1234 2150 1697 2047 
L 1894 2003 
Q 2506 1872 2764 1633 
Q 3022 1394 3022 966 
Q 3022 478 2636 193 
Q 2250 -91 1575 -91 
Q 1294 -91 989 -36 
Q 684 19 347 128 
L 347 722 
Q 666 556 975 473 
Q 1284 391 1588 391 
Q 1994 391 2212 530 
Q 2431 669 2431 922 
Q 2431 1156 2273 1281 
Q 2116 1406 1581 1522 
L 1381 1569 
Q 847 1681 609 1914 
Q 372 2147 372 2553 
Q 372 3047 722 3315 
Q 1072 3584 1716 3584 
Q 2034 3584 2315 3537 
Q 2597 3491 2834 3397 
z
" transform="scale(0.015625)"/>
       <path id="DejaVuSans-6f" d="M 1959 3097 
Q 1497 3097 1228 2736 
Q 959 2375 959 1747 
Q 959 1119 1226 758 
Q 1494 397 1959 397 
Q 2419 397 2687 759 
Q 2956 1122 2956 1747 
Q 2956 2369 2687 2733 
Q 2419 3097 1959 3097 
z
M 1959 3584 
Q 2709 3584 3137 3096 
Q 3566 2609 3566 1747 
Q 3566 888 3137 398 
Q 2709 -91 1959 -91 
Q 1206 -91 779 398 
Q 353 888 353 1747 
Q 353 2609 779 3096 
Q 1206 3584 1959 3584 
z
" transform="scale(0.015625)"/>
       <path id="DejaVuSans-6c" d="M 603 4863 
L 1178 4863 
L 1178 0 
L 603 0 
L 603 4863 
z
" transform="scale(0.015625)"/>
       <path id="DejaVuSans-75" d="M 544 1381 
L 544 3500 
L 1119 3500 
L 1119 1403 
Q 1119 906 1312 657 
Q 1506 409 1894 409 
Q 2359 409 2629 706 
Q 2900 1003 2900 1516 
L 2900 3500 
L 3475 3500 
L 3475 0 
L 2900 0 
L 2900 538 
Q 2691 219 2414 64 
Q 2138 -91 1772 -91 
Q 1169 -91 856 284 
Q 544 659 544 1381 
z
M 1991 3584 
L 1991 3584 
z
" transform="scale(0.015625)"/>
       <path id="DejaVuSans-74" d="M 1172 4494 
L 1172 3500 
L 2356 3500 
L 2356 3053 
L 1172 3053 
L 1172 1153 
Q 1172 725 1289 603 
Q 1406 481 1766 481 
L 2356 481 
L 2356 0 
L 1766 0 
Q 1100 0 847 248 
Q 594 497 594 1153 
L 594 3053 
L 172 3053 
L 172 3500 
L 594 3500 
L 594 4494 
L 1172 4494 
z
" transform="scale(0.015625)"/>
       <path id="DejaVuSans-65" d="M 3597 1894 
L 3597 1613 
L 953 1613 
Q 991 1019 1311 708 
Q 1631 397 2203 397 
Q 2534 397 2845 478 
Q 3156 559 3463 722 
L 3463 178 
Q 3153 47 2828 -22 
Q 2503 -91 2169 -91 
Q 1331 -91 842 396 
Q 353 884 353 1716 
Q 353 2575 817 3079 
Q 1281 3584 2069 3584 
Q 2775 3584 3186 3129 
Q 3597 2675 3597 1894 
z
M 3022 2063 
Q 3016 2534 2758 2815 
Q 2500 3097 2075 3097 
Q 1594 3097 1305 2825 
Q 1016 2553 972 2059 
L 3022 2063 
z
" transform="scale(0.015625)"/>
       <path id="DejaVuSans-20" transform="scale(0.015625)"/>
       <path id="DejaVuSans-67" d="M 2906 1791 
Q 2906 2416 2648 2759 
Q 2391 3103 1925 3103 
Q 1463 3103 1205 2759 
Q 947 2416 947 1791 
Q 947 1169 1205 825 
Q 1463 481 1925 481 
Q 2391 481 2648 825 
Q 2906 1169 2906 1791 
z
M 3481 434 
Q 3481 -459 3084 -895 
Q 2688 -1331 1869 -1331 
Q 1566 -1331 1297 -1286 
Q 1028 -1241 775 -1147 
L 775 -588 
Q 1028 -725 1275 -790 
Q 1522 -856 1778 -856 
Q 2344 -856 2625 -561 
Q 2906 -266 2906 331 
L 2906 616 
Q 2728 306 2450 153 
Q 2172 0 1784 0 
Q 1141 0 747 490 
Q 353 981 353 1791 
Q 353 2603 747 3093 
Q 1141 3584 1784 3584 
Q 2172 3584 2450 3431 
Q 2728 3278 2906 2969 
L 2906 3500 
L 3481 3500 
L 3481 434 
z
" transform="scale(0.015625)"/>
       <path id="DejaVuSans-2d" d="M 313 2009 
L 1997 2009 
L 1997 1497 
L 313 1497 
L 313 2009 
z
" transform="scale(0.015625)"/>
       <path id="DejaVuSans-72" d="M 2631 2963 
Q 2534 3019 2420 3045 
Q 2306 3072 2169 3072 
Q 1681 3072 1420 2755 
Q 1159 2438 1159 1844 
L 1159 0 
L 581 0 
L 581 3500 
L 1159 3500 
L 1159 2956 
Q 1341 3275 1631 3429 
Q 1922 3584 2338 3584 
Q 2397 3584 2469 3576 
Q 2541 3569 2628 3553 
L 2631 2963 
z
" transform="scale(0.015625)"/>
       <path id="DejaVuSans-61" d="M 2194 1759 
Q 1497 1759 1228 1600 
Q 959 1441 959 1056 
Q 959 750 1161 570 
Q 1363 391 1709 391 
Q 2188 391 2477 730 
Q 2766 1069 2766 1631 
L 2766 1759 
L 2194 1759 
z
M 3341 1997 
L 3341 0 
L 2766 0 
L 2766 531 
Q 2569 213 2275 61 
Q 1981 -91 1556 -91 
Q 1019 -91 701 211 
Q 384 513 384 1019 
Q 384 1609 779 1909 
Q 1175 2209 1959 2209 
L 2766 2209 
L 2766 2266 
Q 2766 2663 2505 2880 
Q 2244 3097 1772 3097 
Q 1472 3097 1187 3025 
Q 903 2953 641 2809 
L 641 3341 
Q 956 3463 1253 3523 
Q 1550 3584 1831 3584 
Q 2591 3584 2966 3190 
Q 3341 2797 3341 1997 
z
" transform="scale(0.015625)"/>
       <path id="DejaVuSans-69" d="M 603 3500 
L 1178 3500 
L 1178 0 
L 603 0 
L 603 3500 
z
M 603 4863 
L 1178 4863 
L 1178 4134 
L 603 4134 
L 603 4863 
z
" transform="scale(0.015625)"/>
      </defs>
      <use xlink:href="#DejaVuSans-41"/>
      <use xlink:href="#DejaVuSans-62" transform="translate(68.408203 0)"/>
      <use xlink:href="#DejaVuSans-73" transform="translate(131.884766 0)"/>
      <use xlink:href="#DejaVuSans-6f" transform="translate(183.984375 0)"/>
      <use xlink:href="#DejaVuSans-6c" transform="translate(245.166016 0)"/>
      <use xlink:href="#DejaVuSans-75" transform="translate(272.949219 0)"/>
      <use xlink:href="#DejaVuSans-74" transform="translate(336.328125 0)"/>
      <use xlink:href="#DejaVuSans-65" transform="translate(375.537109 0)"/>
      <use xlink:href="#DejaVuSans-20" transform="translate(437.060547 0)"/>
      <use xlink:href="#DejaVuSans-6c" transform="translate(468.847656 0)"/>
      <use xlink:href="#DejaVuSans-6f" transform="translate(496.630859 0)"/>
      <use xlink:href="#DejaVuSans-67" transform="translate(557.8125 0)"/>
      <use xlink:href="#DejaVuSans-2d" transform="translate(621.289062 0)"/>
      <use xlink:href="#DejaVuSans-72" transform="translate(657.373047 0)"/>
      <use xlink:href="#DejaVuSans-61" transform="translate(698.486328 0)"/>
      <use xlink:href="#DejaVuSans-74" transform="translate(759.765625 0)"/>
      <use xlink:href="#DejaVuSans-69" transform="translate(798.974609 0)"/>
      <use xlink:href="#DejaVuSans-6f" transform="translate(826.757812 0)"/>
     </g>
    </g>
   </g>
   <g id="patch_3">
    <path d="M 62.13925 507.56051 
L 94.057 507.56051 
L 94.057 503.593772 
L 62.13925 503.593772 
L 62.13925 507.56051 
z
" clip-path="url(#p7c1a74317e)" style="fill: #780000; stroke: #000000; stroke-linejoin: miter"/>
   </g>
   <g id="line2d_11">
    <path d="M 78.098125 507.56051 
L 78.098125 508.733445 
" clip-path="url(#p7c1a74317e)" style="fill: none; stroke: #000000; stroke-linecap: square"/>
   </g>
   <g id="line2d_12">
    <path d="M 78.098125 503.593772 
L 78.098125 497.703369 
" clip-path="url(#p7c1a74317e)" style="fill: none; stroke: #000000; stroke-linecap: square"/>
   </g>
   <g id="line2d_13">
    <path d="M 70.118687 508.733445 
L 86.077562 508.733445 
" clip-path="url(#p7c1a74317e)" style="fill: none; stroke: #000000; stroke-linecap: square"/>
   </g>
   <g id="line2d_14">
    <path d="M 70.118687 497.703369 
L 86.077562 497.703369 
" clip-path="url(#p7c1a74317e)" style="fill: none; stroke: #000000; stroke-linecap: square"/>
   </g>
   <g id="line2d_15">
    <defs>
     <path id="m694364a53b" d="M 0 3 
C 0.795609 3 1.55874 2.683901 2.12132 2.12132 
C 2.683901 1.55874 3 0.795609 3 0 
C 3 -0.795609 2.683901 -1.55874 2.12132 -2.12132 
C 1.55874 -2.683901 0.795609 -3 0 -3 
C -0.795609 -3 -1.55874 -2.683901 -2.12132 -2.12132 
C -2.683901 -1.55874 -3 -0.795609 -3 0 
C -3 0.795609 -2.683901 1.55874 -2.12132 2.12132 
C -1.55874 2.683901 -0.795609 3 0 3 
z
" style="stroke: #000000"/>
    </defs>
    <g clip-path="url(#p7c1a74317e)">
     <use xlink:href="#m694364a53b" x="78.098125" y="495.05347" style="fill-opacity: 0; stroke: #000000"/>
     <use xlink:href="#m694364a53b" x="78.098125" y="489.607498" style="fill-opacity: 0; stroke: #000000"/>
     <use xlink:href="#m694364a53b" x="78.098125" y="495.816968" style="fill-opacity: 0; stroke: #000000"/>
     <use xlink:href="#m694364a53b" x="78.098125" y="496.703176" style="fill-opacity: 0; stroke: #000000"/>
     <use xlink:href="#m694364a53b" x="78.098125" y="495.982978" style="fill-opacity: 0; stroke: #000000"/>
     <use xlink:href="#m694364a53b" x="78.098125" y="497.024196" style="fill-opacity: 0; stroke: #000000"/>
     <use xlink:href="#m694364a53b" x="78.098125" y="496.362507" style="fill-opacity: 0; stroke: #000000"/>
     <use xlink:href="#m694364a53b" x="78.098125" y="494.73632" style="fill-opacity: 0; stroke: #000000"/>
     <use xlink:href="#m694364a53b" x="78.098125" y="494.479748" style="fill-opacity: 0; stroke: #000000"/>
     <use xlink:href="#m694364a53b" x="78.098125" y="493.840379" style="fill-opacity: 0; stroke: #000000"/>
     <use xlink:href="#m694364a53b" x="78.098125" y="493.54255" style="fill-opacity: 0; stroke: #000000"/>
     <use xlink:href="#m694364a53b" x="78.098125" y="493.503456" style="fill-opacity: 0; stroke: #000000"/>
     <use xlink:href="#m694364a53b" x="78.098125" y="494.34257" style="fill-opacity: 0; stroke: #000000"/>
     <use xlink:href="#m694364a53b" x="78.098125" y="495.819336" style="fill-opacity: 0; stroke: #000000"/>
     <use xlink:href="#m694364a53b" x="78.098125" y="496.984136" style="fill-opacity: 0; stroke: #000000"/>
     <use xlink:href="#m694364a53b" x="78.098125" y="496.76209" style="fill-opacity: 0; stroke: #000000"/>
     <use xlink:href="#m694364a53b" x="78.098125" y="496.678416" style="fill-opacity: 0; stroke: #000000"/>
     <use xlink:href="#m694364a53b" x="78.098125" y="489.153846" style="fill-opacity: 0; stroke: #000000"/>
     <use xlink:href="#m694364a53b" x="78.098125" y="495.842445" style="fill-opacity: 0; stroke: #000000"/>
     <use xlink:href="#m694364a53b" x="78.098125" y="496.00543" style="fill-opacity: 0; stroke: #000000"/>
    </g>
   </g>
   <g id="patch_4">
    <path d="M 115.3355 501.070831 
L 147.25325 501.070831 
L 147.25325 482.049243 
L 115.3355 482.049243 
L 115.3355 501.070831 
z
" clip-path="url(#p7c1a74317e)" style="fill: #780000; stroke: #000000; stroke-linejoin: miter"/>
   </g>
   <g id="line2d_16">
    <path d="M 131.294375 501.070831 
L 131.294375 508.737698 
" clip-path="url(#p7c1a74317e)" style="fill: none; stroke: #000000; stroke-linecap: square"/>
   </g>
   <g id="line2d_17">
    <path d="M 131.294375 482.049243 
L 131.294375 455.554814 
" clip-path="url(#p7c1a74317e)" style="fill: none; stroke: #000000; stroke-linecap: square"/>
   </g>
   <g id="line2d_18">
    <path d="M 123.314937 508.737698 
L 139.273812 508.737698 
" clip-path="url(#p7c1a74317e)" style="fill: none; stroke: #000000; stroke-linecap: square"/>
   </g>
   <g id="line2d_19">
    <path d="M 123.314937 455.554814 
L 139.273812 455.554814 
" clip-path="url(#p7c1a74317e)" style="fill: none; stroke: #000000; stroke-linecap: square"/>
   </g>
   <g id="line2d_20">
    <g clip-path="url(#p7c1a74317e)">
     <use xlink:href="#m694364a53b" x="131.294375" y="451.478002" style="fill-opacity: 0; stroke: #000000"/>
     <use xlink:href="#m694364a53b" x="131.294375" y="447.113007" style="fill-opacity: 0; stroke: #000000"/>
     <use xlink:href="#m694364a53b" x="131.294375" y="450.602812" style="fill-opacity: 0; stroke: #000000"/>
     <use xlink:href="#m694364a53b" x="131.294375" y="451.590769" style="fill-opacity: 0; stroke: #000000"/>
     <use xlink:href="#m694364a53b" x="131.294375" y="449.618462" style="fill-opacity: 0; stroke: #000000"/>
     <use xlink:href="#m694364a53b" x="131.294375" y="449.876941" style="fill-opacity: 0; stroke: #000000"/>
     <use xlink:href="#m694364a53b" x="131.294375" y="446.601614" style="fill-opacity: 0; stroke: #000000"/>
     <use xlink:href="#m694364a53b" x="131.294375" y="451.872725" style="fill-opacity: 0; stroke: #000000"/>
     <use xlink:href="#m694364a53b" x="131.294375" y="444.625336" style="fill-opacity: 0; stroke: #000000"/>
     <use xlink:href="#m694364a53b" x="131.294375" y="445.390566" style="fill-opacity: 0; stroke: #000000"/>
     <use xlink:href="#m694364a53b" x="131.294375" y="448.144529" style="fill-opacity: 0; stroke: #000000"/>
     <use xlink:href="#m694364a53b" x="131.294375" y="444.959831" style="fill-opacity: 0; stroke: #000000"/>
    </g>
   </g>
   <g id="patch_5">
    <path d="M 168.53175 483.831004 
L 200.4495 483.831004 
L 200.4495 445.430447 
L 168.53175 445.430447 
L 168.53175 483.831004 
z
" clip-path="url(#p7c1a74317e)" style="fill: #780000; stroke: #000000; stroke-linejoin: miter"/>
   </g>
   <g id="line2d_21">
    <path d="M 184.490625 483.831004 
L 184.490625 508.727727 
" clip-path="url(#p7c1a74317e)" style="fill: none; stroke: #000000; stroke-linecap: square"/>
   </g>
   <g id="line2d_22">
    <path d="M 184.490625 445.430447 
L 184.490625 388.15725 
" clip-path="url(#p7c1a74317e)" style="fill: none; stroke: #000000; stroke-linecap: square"/>
   </g>
   <g id="line2d_23">
    <path d="M 176.511188 508.727727 
L 192.470062 508.727727 
" clip-path="url(#p7c1a74317e)" style="fill: none; stroke: #000000; stroke-linecap: square"/>
   </g>
   <g id="line2d_24">
    <path d="M 176.511188 388.15725 
L 192.470062 388.15725 
" clip-path="url(#p7c1a74317e)" style="fill: none; stroke: #000000; stroke-linecap: square"/>
   </g>
   <g id="line2d_25">
    <g clip-path="url(#p7c1a74317e)">
     <use xlink:href="#m694364a53b" x="184.490625" y="387.546866" style="fill-opacity: 0; stroke: #000000"/>
     <use xlink:href="#m694364a53b" x="184.490625" y="381.917149" style="fill-opacity: 0; stroke: #000000"/>
     <use xlink:href="#m694364a53b" x="184.490625" y="370.086221" style="fill-opacity: 0; stroke: #000000"/>
     <use xlink:href="#m694364a53b" x="184.490625" y="383.777196" style="fill-opacity: 0; stroke: #000000"/>
     <use xlink:href="#m694364a53b" x="184.490625" y="370.88638" style="fill-opacity: 0; stroke: #000000"/>
     <use xlink:href="#m694364a53b" x="184.490625" y="369.422627" style="fill-opacity: 0; stroke: #000000"/>
     <use xlink:href="#m694364a53b" x="184.490625" y="375.26049" style="fill-opacity: 0; stroke: #000000"/>
     <use xlink:href="#m694364a53b" x="184.490625" y="373.096032" style="fill-opacity: 0; stroke: #000000"/>
     <use xlink:href="#m694364a53b" x="184.490625" y="362.726662" style="fill-opacity: 0; stroke: #000000"/>
     <use xlink:href="#m694364a53b" x="184.490625" y="376.432165" style="fill-opacity: 0; stroke: #000000"/>
     <use xlink:href="#m694364a53b" x="184.490625" y="374.175285" style="fill-opacity: 0; stroke: #000000"/>
     <use xlink:href="#m694364a53b" x="184.490625" y="379.19671" style="fill-opacity: 0; stroke: #000000"/>
     <use xlink:href="#m694364a53b" x="184.490625" y="378.52631" style="fill-opacity: 0; stroke: #000000"/>
     <use xlink:href="#m694364a53b" x="184.490625" y="382.35734" style="fill-opacity: 0; stroke: #000000"/>
     <use xlink:href="#m694364a53b" x="184.490625" y="377.775169" style="fill-opacity: 0; stroke: #000000"/>
     <use xlink:href="#m694364a53b" x="184.490625" y="387.056503" style="fill-opacity: 0; stroke: #000000"/>
     <use xlink:href="#m694364a53b" x="184.490625" y="387.473117" style="fill-opacity: 0; stroke: #000000"/>
     <use xlink:href="#m694364a53b" x="184.490625" y="365.094828" style="fill-opacity: 0; stroke: #000000"/>
     <use xlink:href="#m694364a53b" x="184.490625" y="371.046778" style="fill-opacity: 0; stroke: #000000"/>
     <use xlink:href="#m694364a53b" x="184.490625" y="376.977271" style="fill-opacity: 0; stroke: #000000"/>
     <use xlink:href="#m694364a53b" x="184.490625" y="375.569142" style="fill-opacity: 0; stroke: #000000"/>
     <use xlink:href="#m694364a53b" x="184.490625" y="380.53429" style="fill-opacity: 0; stroke: #000000"/>
     <use xlink:href="#m694364a53b" x="184.490625" y="377.344073" style="fill-opacity: 0; stroke: #000000"/>
     <use xlink:href="#m694364a53b" x="184.490625" y="367.326759" style="fill-opacity: 0; stroke: #000000"/>
     <use xlink:href="#m694364a53b" x="184.490625" y="373.478148" style="fill-opacity: 0; stroke: #000000"/>
     <use xlink:href="#m694364a53b" x="184.490625" y="374.828013" style="fill-opacity: 0; stroke: #000000"/>
     <use xlink:href="#m694364a53b" x="184.490625" y="375.021329" style="fill-opacity: 0; stroke: #000000"/>
     <use xlink:href="#m694364a53b" x="184.490625" y="387.737682" style="fill-opacity: 0; stroke: #000000"/>
     <use xlink:href="#m694364a53b" x="184.490625" y="383.900255" style="fill-opacity: 0; stroke: #000000"/>
     <use xlink:href="#m694364a53b" x="184.490625" y="349.113941" style="fill-opacity: 0; stroke: #000000"/>
     <use xlink:href="#m694364a53b" x="184.490625" y="332.887277" style="fill-opacity: 0; stroke: #000000"/>
    </g>
   </g>
   <g id="patch_6">
    <path d="M 221.728 301.697061 
L 253.64575 301.697061 
L 253.64575 172.987211 
L 221.728 172.987211 
L 221.728 301.697061 
z
" clip-path="url(#p7c1a74317e)" style="fill: #780000; stroke: #000000; stroke-linejoin: miter"/>
   </g>
   <g id="line2d_26">
    <path d="M 237.686875 301.697061 
L 237.686875 494.235312 
" clip-path="url(#p7c1a74317e)" style="fill: none; stroke: #000000; stroke-linecap: square"/>
   </g>
   <g id="line2d_27">
    <path d="M 237.686875 172.987211 
L 237.686875 36.09399 
" clip-path="url(#p7c1a74317e)" style="fill: none; stroke: #000000; stroke-linecap: square"/>
   </g>
   <g id="line2d_28">
    <path d="M 229.707437 494.235312 
L 245.666313 494.235312 
" clip-path="url(#p7c1a74317e)" style="fill: none; stroke: #000000; stroke-linecap: square"/>
   </g>
   <g id="line2d_29">
    <path d="M 229.707437 36.09399 
L 245.666313 36.09399 
" clip-path="url(#p7c1a74317e)" style="fill: none; stroke: #000000; stroke-linecap: square"/>
   </g>
   <g id="line2d_30">
    <g clip-path="url(#p7c1a74317e)">
     <use xlink:href="#m694364a53b" x="237.686875" y="501.873524" style="fill-opacity: 0; stroke: #000000"/>
    </g>
   </g>
   <g id="line2d_31">
    <path d="M 62.13925 505.86599 
L 94.057 505.86599 
" clip-path="url(#p7c1a74317e)" style="fill: none; stroke: #f28e79"/>
   </g>
   <g id="line2d_32">
    <path d="M 115.3355 492.327611 
L 147.25325 492.327611 
" clip-path="url(#p7c1a74317e)" style="fill: none; stroke: #f28e79"/>
   </g>
   <g id="line2d_33">
    <path d="M 168.53175 465.161931 
L 200.4495 465.161931 
" clip-path="url(#p7c1a74317e)" style="fill: none; stroke: #f28e79"/>
   </g>
   <g id="line2d_34">
    <path d="M 221.728 237.676256 
L 253.64575 237.676256 
" clip-path="url(#p7c1a74317e)" style="fill: none; stroke: #f28e79"/>
   </g>
   <g id="patch_7">
    <path d="M 51.5 532.369884 
L 51.5 12.461804 
" style="fill: none; stroke: #000000; stroke-width: 0.8; stroke-linejoin: miter; stroke-linecap: square"/>
   </g>
   <g id="patch_8">
    <path d="M 264.285 532.369884 
L 264.285 12.461804 
" style="fill: none; stroke: #000000; stroke-width: 0.8; stroke-linejoin: miter; stroke-linecap: square"/>
   </g>
   <g id="patch_9">
    <path d="M 51.5 532.369884 
L 264.285 532.369884 
" style="fill: none; stroke: #000000; stroke-width: 0.8; stroke-linejoin: miter; stroke-linecap: square"/>
   </g>
   <g id="patch_10">
    <path d="M 51.5 12.461804 
L 264.285 12.461804 
" style="fill: none; stroke: #000000; stroke-width: 0.8; stroke-linejoin: miter; stroke-linecap: square"/>
   </g>
  </g>
 </g>
 <defs>
  <clipPath id="p7c1a74317e">
   <rect x="51.5" y="12.461804" width="212.785" height="519.90808"/>
  </clipPath>
 </defs>
</svg>
