<?xml version="1.0" encoding="utf-8" standalone="no"?>
<!DOCTYPE svg PUBLIC "-//W3C//DTD SVG 1.1//EN"
  "http://www.w3.org/Graphics/SVG/1.1/DTD/svg11.dtd">
<svg xmlns:xlink="http://www.w3.org/1999/xlink" width="857.77pt" height="211.6075pt" viewBox="0 0 857.77 211.6075" xmlns="http://www.w3.org/2000/svg" version="1.1">
 <metadata>
  <rdf:RDF xmlns:dc="http://purl.org/dc/elements/1.1/" xmlns:cc="http://creativecommons.org/ns#" xmlns:rdf="http://www.w3.org/1999/02/22-rdf-syntax-ns#">
   <cc:Work>
    <dc:type rdf:resource="http://purl.org/dc/dcmitype/StillImage"/>
    <dc:date>2026-02-18T11:44:45.536667</dc:date>
    <dc:format>image/svg+xml</dc:format>
    <dc:creator>
     <cc:Agent>
      <dc:title>Matplotlib v3.10.3, https://matplotlib.org/</dc:title>
     </cc:Agent>
    </dc:creator>
   </cc:Work>
  </rdf:RDF>
 </metadata>
 <defs>
  <style type="text/css">*{stroke-linejoin: round; stroke-linecap: butt}</style>
 </defs>
 <g id="figure_1">
  <g id="patch_1">
   <path d="M 0 211.6075 
L 857.77 211.6075 
L 857.77 0 
L 0 0 
z
" style="fill: #ffffff"/>
  </g>
  <g id="axes_1">
   <g id="patch_2">
    <path d="M 59.13 162.4375 
L 293.093957 162.4375 
L 293.093957 25.3575 
L 59.13 25.3575 
z
" style="fill: #ffffff"/>
   </g>
   <g id="matplotlib.axis_1">
    <g id="xtick_1">
     <g id="line2d_1">
      <defs>
       <path id="m75b40e3b96" d="M 0 0 
L 0 3.5 
" style="stroke: #000000; stroke-width: 0.8"/>
      </defs>
      <g>
       <use xlink:href="#m75b40e3b96" x="86.117879" y="162.4375" style="stroke: #000000; stroke-width: 0.8"/>
      </g>
     </g>
     <g id="text_1">
      <!-- 0 -->
      <g transform="translate(81.027879 181.595) scale(0.16 -0.16)">
       <defs>
        <path id="DejaVuSans-30" d="M 2034 4250 
Q 1547 4250 1301 3770 
Q 1056 3291 1056 2328 
Q 1056 1369 1301 889 
Q 1547 409 2034 409 
Q 2525 409 2770 889 
Q 3016 1369 3016 2328 
Q 3016 3291 2770 3770 
Q 2525 4250 2034 4250 
z
M 2034 4750 
Q 2819 4750 3233 4129 
Q 3647 3509 3647 2328 
Q 3647 1150 3233 529 
Q 2819 -91 2034 -91 
Q 1250 -91 836 529 
Q 422 1150 422 2328 
Q 422 3509 836 4129 
Q 1250 4750 2034 4750 
z
" transform="scale(0.015625)"/>
       </defs>
       <use xlink:href="#DejaVuSans-30"/>
      </g>
     </g>
    </g>
    <g id="xtick_2">
     <g id="line2d_2">
      <g>
       <use xlink:href="#m75b40e3b96" x="175.643471" y="162.4375" style="stroke: #000000; stroke-width: 0.8"/>
      </g>
     </g>
     <g id="text_2">
      <!-- 10 -->
      <g transform="translate(165.463471 181.595) scale(0.16 -0.16)">
       <defs>
        <path id="DejaVuSans-31" d="M 794 531 
L 1825 531 
L 1825 4091 
L 703 3866 
L 703 4441 
L 1819 4666 
L 2450 4666 
L 2450 531 
L 3481 531 
L 3481 0 
L 794 0 
L 794 531 
z
" transform="scale(0.015625)"/>
       </defs>
       <use xlink:href="#DejaVuSans-31"/>
       <use xlink:href="#DejaVuSans-30" transform="translate(63.623047 0)"/>
      </g>
     </g>
    </g>
    <g id="xtick_3">
     <g id="line2d_3">
      <g>
       <use xlink:href="#m75b40e3b96" x="265.169063" y="162.4375" style="stroke: #000000; stroke-width: 0.8"/>
      </g>
     </g>
     <g id="text_3">
      <!-- 20 -->
      <g transform="translate(254.989063 181.595) scale(0.16 -0.16)">
       <defs>
        <path id="DejaVuSans-32" d="M 1228 531 
L 3431 531 
L 3431 0 
L 469 0 
L 469 531 
Q 828 903 1448 1529 
Q 2069 2156 2228 2338 
Q 2531 2678 2651 2914 
Q 2772 3150 2772 3378 
Q 2772 3750 2511 3984 
Q 2250 4219 1831 4219 
Q 1534 4219 1204 4116 
Q 875 4013 500 3803 
L 500 4441 
Q 881 4594 1212 4672 
Q 1544 4750 1819 4750 
Q 2544 4750 2975 4387 
Q 3406 4025 3406 3419 
Q 3406 3131 3298 2873 
Q 3191 2616 2906 2266 
Q 2828 2175 2409 1742 
Q 1991 1309 1228 531 
z
" transform="scale(0.015625)"/>
       </defs>
       <use xlink:href="#DejaVuSans-32"/>
       <use xlink:href="#DejaVuSans-30" transform="translate(63.623047 0)"/>
      </g>
     </g>
    </g>
    <g id="text_4">
     <!-- Absolute log-ratio -->
     <g transform="translate(105.076979 201.08) scale(0.16 -0.16)">
      <defs>
       <path id="DejaVuSans-41" d="M 2188 4044 
L 1331 1722 
L 3047 1722 
L 2188 4044 
z
M 1831 4666 
L 2547 4666 
L 4325 0 
L 3669 0 
L 3244 1197 
L 1141 1197 
L 716 0 
L 50 0 
L 1831 4666 
z
" transform="scale(0.015625)"/>
       <path id="DejaVuSans-62" d="M 3116 1747 
Q 3116 2381 2855 2742 
Q 2594 3103 2138 3103 
Q 1681 3103 1420 2742 
Q 1159 2381 1159 1747 
Q 1159 1113 1420 752 
Q 1681 391 2138 391 
Q 2594 391 2855 752 
Q 3116 1113 3116 1747 
z
M 1159 2969 
Q 1341 3281 1617 3432 
Q 1894 3584 2278 3584 
Q 2916 3584 3314 3078 
Q 3713 2572 3713 1747 
Q 3713 922 3314 415 
Q 2916 -91 2278 -91 
Q 1894 -91 1617 61 
Q 1341 213 1159 525 
L 1159 0 
L 581 0 
L 581 4863 
L 1159 4863 
L 1159 2969 
z
" transform="scale(0.015625)"/>
       <path id="DejaVuSans-73" d="M 2834 3397 
L 2834 2853 
Q 2591 2978 2328 3040 
Q 2066 3103 1784 3103 
Q 1356 3103 1142 2972 
Q 928 2841 928 2578 
Q 928 2378 1081 2264 
Q 1234 2150 1697 2047 
L 1894 2003 
Q 2506 1872 2764 1633 
Q 3022 1394 3022 966 
Q 3022 478 2636 193 
Q 2250 -91 1575 -91 
Q 1294 -91 989 -36 
Q 684 19 347 128 
L 347 722 
Q 666 556 975 473 
Q 1284 391 1588 391 
Q 1994 391 2212 530 
Q 2431 669 2431 922 
Q 2431 1156 2273 1281 
Q 2116 1406 1581 1522 
L 1381 1569 
Q 847 1681 609 1914 
Q 372 2147 372 2553 
Q 372 3047 722 3315 
Q 1072 3584 1716 3584 
Q 2034 3584 2315 3537 
Q 2597 3491 2834 3397 
z
" transform="scale(0.015625)"/>
       <path id="DejaVuSans-6f" d="M 1959 3097 
Q 1497 3097 1228 2736 
Q 959 2375 959 1747 
Q 959 1119 1226 758 
Q 1494 397 1959 397 
Q 2419 397 2687 759 
Q 2956 1122 2956 1747 
Q 2956 2369 2687 2733 
Q 2419 3097 1959 3097 
z
M 1959 3584 
Q 2709 3584 3137 3096 
Q 3566 2609 3566 1747 
Q 3566 888 3137 398 
Q 2709 -91 1959 -91 
Q 1206 -91 779 398 
Q 353 888 353 1747 
Q 353 2609 779 3096 
Q 1206 3584 1959 3584 
z
" transform="scale(0.015625)"/>
       <path id="DejaVuSans-6c" d="M 603 4863 
L 1178 4863 
L 1178 0 
L 603 0 
L 603 4863 
z
" transform="scale(0.015625)"/>
       <path id="DejaVuSans-75" d="M 544 1381 
L 544 3500 
L 1119 3500 
L 1119 1403 
Q 1119 906 1312 657 
Q 1506 409 1894 409 
Q 2359 409 2629 706 
Q 2900 1003 2900 1516 
L 2900 3500 
L 3475 3500 
L 3475 0 
L 2900 0 
L 2900 538 
Q 2691 219 2414 64 
Q 2138 -91 1772 -91 
Q 1169 -91 856 284 
Q 544 659 544 1381 
z
M 1991 3584 
L 1991 3584 
z
" transform="scale(0.015625)"/>
       <path id="DejaVuSans-74" d="M 1172 4494 
L 1172 3500 
L 2356 3500 
L 2356 3053 
L 1172 3053 
L 1172 1153 
Q 1172 725 1289 603 
Q 1406 481 1766 481 
L 2356 481 
L 2356 0 
L 1766 0 
Q 1100 0 847 248 
Q 594 497 594 1153 
L 594 3053 
L 172 3053 
L 172 3500 
L 594 3500 
L 594 4494 
L 1172 4494 
z
" transform="scale(0.015625)"/>
       <path id="DejaVuSans-65" d="M 3597 1894 
L 3597 1613 
L 953 1613 
Q 991 1019 1311 708 
Q 1631 397 2203 397 
Q 2534 397 2845 478 
Q 3156 559 3463 722 
L 3463 178 
Q 3153 47 2828 -22 
Q 2503 -91 2169 -91 
Q 1331 -91 842 396 
Q 353 884 353 1716 
Q 353 2575 817 3079 
Q 1281 3584 2069 3584 
Q 2775 3584 3186 3129 
Q 3597 2675 3597 1894 
z
M 3022 2063 
Q 3016 2534 2758 2815 
Q 2500 3097 2075 3097 
Q 1594 3097 1305 2825 
Q 1016 2553 972 2059 
L 3022 2063 
z
" transform="scale(0.015625)"/>
       <path id="DejaVuSans-20" transform="scale(0.015625)"/>
       <path id="DejaVuSans-67" d="M 2906 1791 
Q 2906 2416 2648 2759 
Q 2391 3103 1925 3103 
Q 1463 3103 1205 2759 
Q 947 2416 947 1791 
Q 947 1169 1205 825 
Q 1463 481 1925 481 
Q 2391 481 2648 825 
Q 2906 1169 2906 1791 
z
M 3481 434 
Q 3481 -459 3084 -895 
Q 2688 -1331 1869 -1331 
Q 1566 -1331 1297 -1286 
Q 1028 -1241 775 -1147 
L 775 -588 
Q 1028 -725 1275 -790 
Q 1522 -856 1778 -856 
Q 2344 -856 2625 -561 
Q 2906 -266 2906 331 
L 2906 616 
Q 2728 306 2450 153 
Q 2172 0 1784 0 
Q 1141 0 747 490 
Q 353 981 353 1791 
Q 353 2603 747 3093 
Q 1141 3584 1784 3584 
Q 2172 3584 2450 3431 
Q 2728 3278 2906 2969 
L 2906 3500 
L 3481 3500 
L 3481 434 
z
" transform="scale(0.015625)"/>
       <path id="DejaVuSans-2d" d="M 313 2009 
L 1997 2009 
L 1997 1497 
L 313 1497 
L 313 2009 
z
" transform="scale(0.015625)"/>
       <path id="DejaVuSans-72" d="M 2631 2963 
Q 2534 3019 2420 3045 
Q 2306 3072 2169 3072 
Q 1681 3072 1420 2755 
Q 1159 2438 1159 1844 
L 1159 0 
L 581 0 
L 581 3500 
L 1159 3500 
L 1159 2956 
Q 1341 3275 1631 3429 
Q 1922 3584 2338 3584 
Q 2397 3584 2469 3576 
Q 2541 3569 2628 3553 
L 2631 2963 
z
" transform="scale(0.015625)"/>
       <path id="DejaVuSans-61" d="M 2194 1759 
Q 1497 1759 1228 1600 
Q 959 1441 959 1056 
Q 959 750 1161 570 
Q 1363 391 1709 391 
Q 2188 391 2477 730 
Q 2766 1069 2766 1631 
L 2766 1759 
L 2194 1759 
z
M 3341 1997 
L 3341 0 
L 2766 0 
L 2766 531 
Q 2569 213 2275 61 
Q 1981 -91 1556 -91 
Q 1019 -91 701 211 
Q 384 513 384 1019 
Q 384 1609 779 1909 
Q 1175 2209 1959 2209 
L 2766 2209 
L 2766 2266 
Q 2766 2663 2505 2880 
Q 2244 3097 1772 3097 
Q 1472 3097 1187 3025 
Q 903 2953 641 2809 
L 641 3341 
Q 956 3463 1253 3523 
Q 1550 3584 1831 3584 
Q 2591 3584 2966 3190 
Q 3341 2797 3341 1997 
z
" transform="scale(0.015625)"/>
       <path id="DejaVuSans-69" d="M 603 3500 
L 1178 3500 
L 1178 0 
L 603 0 
L 603 3500 
z
M 603 4863 
L 1178 4863 
L 1178 4134 
L 603 4134 
L 603 4863 
z
" transform="scale(0.015625)"/>
      </defs>
      <use xlink:href="#DejaVuSans-41"/>
      <use xlink:href="#DejaVuSans-62" transform="translate(68.408203 0)"/>
      <use xlink:href="#DejaVuSans-73" transform="translate(131.884766 0)"/>
      <use xlink:href="#DejaVuSans-6f" transform="translate(183.984375 0)"/>
      <use xlink:href="#DejaVuSans-6c" transform="translate(245.166016 0)"/>
      <use xlink:href="#DejaVuSans-75" transform="translate(272.949219 0)"/>
      <use xlink:href="#DejaVuSans-74" transform="translate(336.328125 0)"/>
      <use xlink:href="#DejaVuSans-65" transform="translate(375.537109 0)"/>
      <use xlink:href="#DejaVuSans-20" transform="translate(437.060547 0)"/>
      <use xlink:href="#DejaVuSans-6c" transform="translate(468.847656 0)"/>
      <use xlink:href="#DejaVuSans-6f" transform="translate(496.630859 0)"/>
      <use xlink:href="#DejaVuSans-67" transform="translate(557.8125 0)"/>
      <use xlink:href="#DejaVuSans-2d" transform="translate(621.289062 0)"/>
      <use xlink:href="#DejaVuSans-72" transform="translate(657.373047 0)"/>
      <use xlink:href="#DejaVuSans-61" transform="translate(698.486328 0)"/>
      <use xlink:href="#DejaVuSans-74" transform="translate(759.765625 0)"/>
      <use xlink:href="#DejaVuSans-69" transform="translate(798.974609 0)"/>
      <use xlink:href="#DejaVuSans-6f" transform="translate(826.757812 0)"/>
     </g>
    </g>
   </g>
   <g id="matplotlib.axis_2">
    <g id="ytick_1">
     <g id="line2d_4">
      <defs>
       <path id="m07d9392a68" d="M 0 0 
L -3.5 0 
" style="stroke: #000000; stroke-width: 0.8"/>
      </defs>
      <g>
       <use xlink:href="#m07d9392a68" x="59.13" y="162.4375" style="stroke: #000000; stroke-width: 0.8"/>
      </g>
     </g>
     <g id="text_5">
      <!-- 0.0 -->
      <g transform="translate(26.685 168.51625) scale(0.16 -0.16)">
       <defs>
        <path id="DejaVuSans-2e" d="M 684 794 
L 1344 794 
L 1344 0 
L 684 0 
L 684 794 
z
" transform="scale(0.015625)"/>
       </defs>
       <use xlink:href="#DejaVuSans-30"/>
       <use xlink:href="#DejaVuSans-2e" transform="translate(63.623047 0)"/>
       <use xlink:href="#DejaVuSans-30" transform="translate(95.410156 0)"/>
      </g>
     </g>
    </g>
    <g id="ytick_2">
     <g id="line2d_5">
      <g>
       <use xlink:href="#m07d9392a68" x="59.13" y="120.073118" style="stroke: #000000; stroke-width: 0.8"/>
      </g>
     </g>
     <g id="text_6">
      <!-- 0.1 -->
      <g transform="translate(26.685 126.151868) scale(0.16 -0.16)">
       <use xlink:href="#DejaVuSans-30"/>
       <use xlink:href="#DejaVuSans-2e" transform="translate(63.623047 0)"/>
       <use xlink:href="#DejaVuSans-31" transform="translate(95.410156 0)"/>
      </g>
     </g>
    </g>
    <g id="ytick_3">
     <g id="line2d_6">
      <g>
       <use xlink:href="#m07d9392a68" x="59.13" y="77.708737" style="stroke: #000000; stroke-width: 0.8"/>
      </g>
     </g>
     <g id="text_7">
      <!-- 0.2 -->
      <g transform="translate(26.685 83.787487) scale(0.16 -0.16)">
       <use xlink:href="#DejaVuSans-30"/>
       <use xlink:href="#DejaVuSans-2e" transform="translate(63.623047 0)"/>
       <use xlink:href="#DejaVuSans-32" transform="translate(95.410156 0)"/>
      </g>
     </g>
    </g>
    <g id="ytick_4">
     <g id="line2d_7">
      <g>
       <use xlink:href="#m07d9392a68" x="59.13" y="35.344355" style="stroke: #000000; stroke-width: 0.8"/>
      </g>
     </g>
     <g id="text_8">
      <!-- 0.3 -->
      <g transform="translate(26.685 41.423105) scale(0.16 -0.16)">
       <defs>
        <path id="DejaVuSans-33" d="M 2597 2516 
Q 3050 2419 3304 2112 
Q 3559 1806 3559 1356 
Q 3559 666 3084 287 
Q 2609 -91 1734 -91 
Q 1441 -91 1130 -33 
Q 819 25 488 141 
L 488 750 
Q 750 597 1062 519 
Q 1375 441 1716 441 
Q 2309 441 2620 675 
Q 2931 909 2931 1356 
Q 2931 1769 2642 2001 
Q 2353 2234 1838 2234 
L 1294 2234 
L 1294 2753 
L 1863 2753 
Q 2328 2753 2575 2939 
Q 2822 3125 2822 3475 
Q 2822 3834 2567 4026 
Q 2313 4219 1838 4219 
Q 1578 4219 1281 4162 
Q 984 4106 628 3988 
L 628 4550 
Q 988 4650 1302 4700 
Q 1616 4750 1894 4750 
Q 2613 4750 3031 4423 
Q 3450 4097 3450 3541 
Q 3450 3153 3228 2886 
Q 3006 2619 2597 2516 
z
" transform="scale(0.015625)"/>
       </defs>
       <use xlink:href="#DejaVuSans-30"/>
       <use xlink:href="#DejaVuSans-2e" transform="translate(63.623047 0)"/>
       <use xlink:href="#DejaVuSans-33" transform="translate(95.410156 0)"/>
      </g>
     </g>
    </g>
    <g id="text_9">
     <!-- Density -->
     <g transform="translate(19.3575 124.31125) rotate(-90) scale(0.16 -0.16)">
      <defs>
       <path id="DejaVuSans-44" d="M 1259 4147 
L 1259 519 
L 2022 519 
Q 2988 519 3436 956 
Q 3884 1394 3884 2338 
Q 3884 3275 3436 3711 
Q 2988 4147 2022 4147 
L 1259 4147 
z
M 628 4666 
L 1925 4666 
Q 3281 4666 3915 4102 
Q 4550 3538 4550 2338 
Q 4550 1131 3912 565 
Q 3275 0 1925 0 
L 628 0 
L 628 4666 
z
" transform="scale(0.015625)"/>
       <path id="DejaVuSans-6e" d="M 3513 2113 
L 3513 0 
L 2938 0 
L 2938 2094 
Q 2938 2591 2744 2837 
Q 2550 3084 2163 3084 
Q 1697 3084 1428 2787 
Q 1159 2491 1159 1978 
L 1159 0 
L 581 0 
L 581 3500 
L 1159 3500 
L 1159 2956 
Q 1366 3272 1645 3428 
Q 1925 3584 2291 3584 
Q 2894 3584 3203 3211 
Q 3513 2838 3513 2113 
z
" transform="scale(0.015625)"/>
       <path id="DejaVuSans-79" d="M 2059 -325 
Q 1816 -950 1584 -1140 
Q 1353 -1331 966 -1331 
L 506 -1331 
L 506 -850 
L 844 -850 
Q 1081 -850 1212 -737 
Q 1344 -625 1503 -206 
L 1606 56 
L 191 3500 
L 800 3500 
L 1894 763 
L 2988 3500 
L 3597 3500 
L 2059 -325 
z
" transform="scale(0.015625)"/>
      </defs>
      <use xlink:href="#DejaVuSans-44"/>
      <use xlink:href="#DejaVuSans-65" transform="translate(77.001953 0)"/>
      <use xlink:href="#DejaVuSans-6e" transform="translate(138.525391 0)"/>
      <use xlink:href="#DejaVuSans-73" transform="translate(201.904297 0)"/>
      <use xlink:href="#DejaVuSans-69" transform="translate(254.003906 0)"/>
      <use xlink:href="#DejaVuSans-74" transform="translate(281.787109 0)"/>
      <use xlink:href="#DejaVuSans-79" transform="translate(320.996094 0)"/>
     </g>
    </g>
   </g>
   <g id="line2d_8">
    <path d="M 75.446374 162.2303 
L 76.120859 162.058538 
L 76.795344 161.767017 
L 77.469828 161.28967 
L 78.144313 160.5356 
L 78.818798 159.386392 
L 79.493283 157.696781 
L 80.167767 155.300352 
L 80.842252 152.021529 
L 81.516737 147.694144 
L 82.191222 142.185329 
L 82.865706 135.421793 
L 84.214676 118.273192 
L 86.23813 86.67801 
L 87.587099 65.939423 
L 88.936069 49.043806 
L 89.610554 42.679664 
L 90.285038 37.843301 
L 90.959523 34.512131 
L 91.634008 32.581008 
L 92.308493 31.885092 
L 92.982977 32.224033 
L 93.657462 33.384243 
L 94.331947 35.157356 
L 95.680916 39.81405 
L 105.798187 78.328033 
L 108.496126 88.689103 
L 111.194065 100.155 
L 113.217519 108.765657 
L 114.566489 113.816697 
L 115.915458 118.068297 
L 117.264428 121.573905 
L 118.613397 124.537687 
L 120.636852 128.420089 
L 123.334791 133.056921 
L 126.032729 137.264974 
L 128.730668 141.149299 
L 130.754123 143.614813 
L 132.103092 144.924809 
L 133.452062 145.984693 
L 135.475516 147.263394 
L 143.569333 151.936236 
L 148.290726 154.862392 
L 150.31418 155.892481 
L 152.337634 156.657914 
L 161.105936 159.323543 
L 165.827329 160.131077 
L 169.199753 161.174462 
L 171.223207 161.679156 
L 173.246661 161.888537 
L 175.9446 161.81848 
L 178.642539 161.735881 
L 181.340478 161.895076 
L 185.387386 162.217602 
L 189.434295 162.222177 
L 202.249505 162.191109 
L 206.970898 162.409016 
L 209.668837 162.43372 
L 209.668837 162.43372 
" clip-path="url(#p677678a4ac)" style="fill: none; stroke: #780000; stroke-width: 2; stroke-linecap: square"/>
   </g>
   <g id="line2d_9">
    <path d="M 69.764725 162.391067 
L 72.971175 162.164723 
L 75.108808 161.691402 
L 76.177625 161.26505 
L 77.246442 160.655629 
L 78.315258 159.816961 
L 79.384075 158.705661 
L 80.452891 157.287566 
L 81.521708 155.544563 
L 82.590525 153.48045 
L 84.728158 148.530814 
L 90.072241 134.879136 
L 92.209874 130.444385 
L 94.347507 126.911147 
L 96.485141 124.119282 
L 98.622774 121.862064 
L 100.760407 120.010518 
L 102.89804 118.51849 
L 105.035674 117.361407 
L 107.173307 116.481713 
L 110.379757 115.459727 
L 116.792656 113.658368 
L 118.93029 113.264337 
L 121.067923 113.101073 
L 123.205556 113.163144 
L 126.412006 113.547639 
L 128.549639 113.957314 
L 130.687272 114.554651 
L 132.824906 115.433411 
L 134.962539 116.629492 
L 138.168989 118.858295 
L 149.925972 127.706472 
L 164.889404 139.837956 
L 168.095854 142.171633 
L 171.302304 144.09061 
L 177.715204 147.612482 
L 183.059287 150.775322 
L 185.19692 151.830931 
L 187.334553 152.674668 
L 189.472186 153.316185 
L 192.678636 154.014524 
L 199.091536 155.271113 
L 204.435619 156.643882 
L 209.779702 157.945951 
L 222.605501 160.628245 
L 225.811951 161.004363 
L 232.224851 161.387243 
L 240.775384 161.784854 
L 255.738817 162.057816 
L 263.220533 162.322071 
L 276.046332 162.427816 
L 282.459232 162.436938 
L 282.459232 162.436938 
" clip-path="url(#p677678a4ac)" style="fill: none; stroke: #003049; stroke-width: 2; stroke-linecap: square"/>
   </g>
   <g id="patch_3">
    <path d="M 59.13 162.4375 
L 59.13 25.3575 
" style="fill: none; stroke: #000000; stroke-width: 0.8; stroke-linejoin: miter; stroke-linecap: square"/>
   </g>
   <g id="patch_4">
    <path d="M 293.093957 162.4375 
L 293.093957 25.3575 
" style="fill: none; stroke: #000000; stroke-width: 0.8; stroke-linejoin: miter; stroke-linecap: square"/>
   </g>
   <g id="patch_5">
    <path d="M 59.13 162.4375 
L 293.093957 162.4375 
" style="fill: none; stroke: #000000; stroke-width: 0.8; stroke-linejoin: miter; stroke-linecap: square"/>
   </g>
   <g id="patch_6">
    <path d="M 59.13 25.3575 
L 293.093957 25.3575 
" style="fill: none; stroke: #000000; stroke-width: 0.8; stroke-linejoin: miter; stroke-linecap: square"/>
   </g>
   <g id="text_10">
    <!-- IFN-omega -->
    <g transform="translate(132.538229 19.3575) scale(0.16 -0.16)">
     <defs>
      <path id="DejaVuSans-49" d="M 628 4666 
L 1259 4666 
L 1259 0 
L 628 0 
L 628 4666 
z
" transform="scale(0.015625)"/>
      <path id="DejaVuSans-46" d="M 628 4666 
L 3309 4666 
L 3309 4134 
L 1259 4134 
L 1259 2759 
L 3109 2759 
L 3109 2228 
L 1259 2228 
L 1259 0 
L 628 0 
L 628 4666 
z
" transform="scale(0.015625)"/>
      <path id="DejaVuSans-4e" d="M 628 4666 
L 1478 4666 
L 3547 763 
L 3547 4666 
L 4159 4666 
L 4159 0 
L 3309 0 
L 1241 3903 
L 1241 0 
L 628 0 
L 628 4666 
z
" transform="scale(0.015625)"/>
      <path id="DejaVuSans-6d" d="M 3328 2828 
Q 3544 3216 3844 3400 
Q 4144 3584 4550 3584 
Q 5097 3584 5394 3201 
Q 5691 2819 5691 2113 
L 5691 0 
L 5113 0 
L 5113 2094 
Q 5113 2597 4934 2840 
Q 4756 3084 4391 3084 
Q 3944 3084 3684 2787 
Q 3425 2491 3425 1978 
L 3425 0 
L 2847 0 
L 2847 2094 
Q 2847 2600 2669 2842 
Q 2491 3084 2119 3084 
Q 1678 3084 1418 2786 
Q 1159 2488 1159 1978 
L 1159 0 
L 581 0 
L 581 3500 
L 1159 3500 
L 1159 2956 
Q 1356 3278 1631 3431 
Q 1906 3584 2284 3584 
Q 2666 3584 2933 3390 
Q 3200 3197 3328 2828 
z
" transform="scale(0.015625)"/>
     </defs>
     <use xlink:href="#DejaVuSans-49"/>
     <use xlink:href="#DejaVuSans-46" transform="translate(29.492188 0)"/>
     <use xlink:href="#DejaVuSans-4e" transform="translate(87.011719 0)"/>
     <use xlink:href="#DejaVuSans-2d" transform="translate(161.816406 0)"/>
     <use xlink:href="#DejaVuSans-6f" transform="translate(199.775391 0)"/>
     <use xlink:href="#DejaVuSans-6d" transform="translate(260.957031 0)"/>
     <use xlink:href="#DejaVuSans-65" transform="translate(358.369141 0)"/>
     <use xlink:href="#DejaVuSans-67" transform="translate(419.892578 0)"/>
     <use xlink:href="#DejaVuSans-61" transform="translate(483.369141 0)"/>
    </g>
   </g>
   <g id="legend_1">
    <g id="patch_7">
     <path d="M 166.726457 85.1275 
L 281.893957 85.1275 
Q 285.093957 85.1275 285.093957 81.9275 
L 285.093957 36.5575 
Q 285.093957 33.3575 281.893957 33.3575 
L 166.726457 33.3575 
Q 163.526457 33.3575 163.526457 36.5575 
L 163.526457 81.9275 
Q 163.526457 85.1275 166.726457 85.1275 
z
" style="fill: #ffffff; opacity: 0.8; stroke: #cccccc; stroke-linejoin: miter"/>
    </g>
    <g id="line2d_10">
     <path d="M 169.926457 46.315 
L 185.926457 46.315 
L 201.926457 46.315 
" style="fill: none; stroke: #780000; stroke-width: 2; stroke-linecap: square"/>
    </g>
    <g id="text_11">
     <!-- Group 1 -->
     <g transform="translate(214.726457 51.915) scale(0.16 -0.16)">
      <defs>
       <path id="DejaVuSans-47" d="M 3809 666 
L 3809 1919 
L 2778 1919 
L 2778 2438 
L 4434 2438 
L 4434 434 
Q 4069 175 3628 42 
Q 3188 -91 2688 -91 
Q 1594 -91 976 548 
Q 359 1188 359 2328 
Q 359 3472 976 4111 
Q 1594 4750 2688 4750 
Q 3144 4750 3555 4637 
Q 3966 4525 4313 4306 
L 4313 3634 
Q 3963 3931 3569 4081 
Q 3175 4231 2741 4231 
Q 1884 4231 1454 3753 
Q 1025 3275 1025 2328 
Q 1025 1384 1454 906 
Q 1884 428 2741 428 
Q 3075 428 3337 486 
Q 3600 544 3809 666 
z
" transform="scale(0.015625)"/>
       <path id="DejaVuSans-70" d="M 1159 525 
L 1159 -1331 
L 581 -1331 
L 581 3500 
L 1159 3500 
L 1159 2969 
Q 1341 3281 1617 3432 
Q 1894 3584 2278 3584 
Q 2916 3584 3314 3078 
Q 3713 2572 3713 1747 
Q 3713 922 3314 415 
Q 2916 -91 2278 -91 
Q 1894 -91 1617 61 
Q 1341 213 1159 525 
z
M 3116 1747 
Q 3116 2381 2855 2742 
Q 2594 3103 2138 3103 
Q 1681 3103 1420 2742 
Q 1159 2381 1159 1747 
Q 1159 1113 1420 752 
Q 1681 391 2138 391 
Q 2594 391 2855 752 
Q 3116 1113 3116 1747 
z
" transform="scale(0.015625)"/>
      </defs>
      <use xlink:href="#DejaVuSans-47"/>
      <use xlink:href="#DejaVuSans-72" transform="translate(77.490234 0)"/>
      <use xlink:href="#DejaVuSans-6f" transform="translate(116.353516 0)"/>
      <use xlink:href="#DejaVuSans-75" transform="translate(177.535156 0)"/>
      <use xlink:href="#DejaVuSans-70" transform="translate(240.914062 0)"/>
      <use xlink:href="#DejaVuSans-20" transform="translate(304.390625 0)"/>
      <use xlink:href="#DejaVuSans-31" transform="translate(336.177734 0)"/>
     </g>
    </g>
    <g id="line2d_11">
     <path d="M 169.926457 69.8 
L 185.926457 69.8 
L 201.926457 69.8 
" style="fill: none; stroke: #003049; stroke-width: 2; stroke-linecap: square"/>
    </g>
    <g id="text_12">
     <!-- Group 2 -->
     <g transform="translate(214.726457 75.4) scale(0.16 -0.16)">
      <use xlink:href="#DejaVuSans-47"/>
      <use xlink:href="#DejaVuSans-72" transform="translate(77.490234 0)"/>
      <use xlink:href="#DejaVuSans-6f" transform="translate(116.353516 0)"/>
      <use xlink:href="#DejaVuSans-75" transform="translate(177.535156 0)"/>
      <use xlink:href="#DejaVuSans-70" transform="translate(240.914062 0)"/>
      <use xlink:href="#DejaVuSans-20" transform="translate(304.390625 0)"/>
      <use xlink:href="#DejaVuSans-32" transform="translate(336.177734 0)"/>
     </g>
    </g>
   </g>
  </g>
  <g id="axes_2">
   <g id="patch_8">
    <path d="M 337.868021 162.4375 
L 571.831979 162.4375 
L 571.831979 25.3575 
L 337.868021 25.3575 
z
" style="fill: #ffffff"/>
   </g>
   <g id="matplotlib.axis_3">
    <g id="xtick_4">
     <g id="line2d_12">
      <g>
       <use xlink:href="#m75b40e3b96" x="365.214385" y="162.4375" style="stroke: #000000; stroke-width: 0.8"/>
      </g>
     </g>
     <g id="text_13">
      <!-- 0 -->
      <g transform="translate(360.124385 181.595) scale(0.16 -0.16)">
       <use xlink:href="#DejaVuSans-30"/>
      </g>
     </g>
    </g>
    <g id="xtick_5">
     <g id="line2d_13">
      <g>
       <use xlink:href="#m75b40e3b96" x="466.342666" y="162.4375" style="stroke: #000000; stroke-width: 0.8"/>
      </g>
     </g>
     <g id="text_14">
      <!-- 2 -->
      <g transform="translate(461.252666 181.595) scale(0.16 -0.16)">
       <use xlink:href="#DejaVuSans-32"/>
      </g>
     </g>
    </g>
    <g id="xtick_6">
     <g id="line2d_14">
      <g>
       <use xlink:href="#m75b40e3b96" x="567.470947" y="162.4375" style="stroke: #000000; stroke-width: 0.8"/>
      </g>
     </g>
     <g id="text_15">
      <!-- 4 -->
      <g transform="translate(562.380947 181.595) scale(0.16 -0.16)">
       <defs>
        <path id="DejaVuSans-34" d="M 2419 4116 
L 825 1625 
L 2419 1625 
L 2419 4116 
z
M 2253 4666 
L 3047 4666 
L 3047 1625 
L 3713 1625 
L 3713 1100 
L 3047 1100 
L 3047 0 
L 2419 0 
L 2419 1100 
L 313 1100 
L 313 1709 
L 2253 4666 
z
" transform="scale(0.015625)"/>
       </defs>
       <use xlink:href="#DejaVuSans-34"/>
      </g>
     </g>
    </g>
    <g id="text_16">
     <!-- Absolute log-ratio -->
     <g transform="translate(383.815 201.08) scale(0.16 -0.16)">
      <use xlink:href="#DejaVuSans-41"/>
      <use xlink:href="#DejaVuSans-62" transform="translate(68.408203 0)"/>
      <use xlink:href="#DejaVuSans-73" transform="translate(131.884766 0)"/>
      <use xlink:href="#DejaVuSans-6f" transform="translate(183.984375 0)"/>
      <use xlink:href="#DejaVuSans-6c" transform="translate(245.166016 0)"/>
      <use xlink:href="#DejaVuSans-75" transform="translate(272.949219 0)"/>
      <use xlink:href="#DejaVuSans-74" transform="translate(336.328125 0)"/>
      <use xlink:href="#DejaVuSans-65" transform="translate(375.537109 0)"/>
      <use xlink:href="#DejaVuSans-20" transform="translate(437.060547 0)"/>
      <use xlink:href="#DejaVuSans-6c" transform="translate(468.847656 0)"/>
      <use xlink:href="#DejaVuSans-6f" transform="translate(496.630859 0)"/>
      <use xlink:href="#DejaVuSans-67" transform="translate(557.8125 0)"/>
      <use xlink:href="#DejaVuSans-2d" transform="translate(621.289062 0)"/>
      <use xlink:href="#DejaVuSans-72" transform="translate(657.373047 0)"/>
      <use xlink:href="#DejaVuSans-61" transform="translate(698.486328 0)"/>
      <use xlink:href="#DejaVuSans-74" transform="translate(759.765625 0)"/>
      <use xlink:href="#DejaVuSans-69" transform="translate(798.974609 0)"/>
      <use xlink:href="#DejaVuSans-6f" transform="translate(826.757812 0)"/>
     </g>
    </g>
   </g>
   <g id="matplotlib.axis_4">
    <g id="ytick_5">
     <g id="line2d_15">
      <g>
       <use xlink:href="#m07d9392a68" x="337.868021" y="162.4375" style="stroke: #000000; stroke-width: 0.8"/>
      </g>
     </g>
     <g id="text_17">
      <!-- 0.0 -->
      <g transform="translate(305.423021 168.51625) scale(0.16 -0.16)">
       <use xlink:href="#DejaVuSans-30"/>
       <use xlink:href="#DejaVuSans-2e" transform="translate(63.623047 0)"/>
       <use xlink:href="#DejaVuSans-30" transform="translate(95.410156 0)"/>
      </g>
     </g>
    </g>
    <g id="ytick_6">
     <g id="line2d_16">
      <g>
       <use xlink:href="#m07d9392a68" x="337.868021" y="103.82126" style="stroke: #000000; stroke-width: 0.8"/>
      </g>
     </g>
     <g id="text_18">
      <!-- 0.5 -->
      <g transform="translate(305.423021 109.90001) scale(0.16 -0.16)">
       <defs>
        <path id="DejaVuSans-35" d="M 691 4666 
L 3169 4666 
L 3169 4134 
L 1269 4134 
L 1269 2991 
Q 1406 3038 1543 3061 
Q 1681 3084 1819 3084 
Q 2600 3084 3056 2656 
Q 3513 2228 3513 1497 
Q 3513 744 3044 326 
Q 2575 -91 1722 -91 
Q 1428 -91 1123 -41 
Q 819 9 494 109 
L 494 744 
Q 775 591 1075 516 
Q 1375 441 1709 441 
Q 2250 441 2565 725 
Q 2881 1009 2881 1497 
Q 2881 1984 2565 2268 
Q 2250 2553 1709 2553 
Q 1456 2553 1204 2497 
Q 953 2441 691 2322 
L 691 4666 
z
" transform="scale(0.015625)"/>
       </defs>
       <use xlink:href="#DejaVuSans-30"/>
       <use xlink:href="#DejaVuSans-2e" transform="translate(63.623047 0)"/>
       <use xlink:href="#DejaVuSans-35" transform="translate(95.410156 0)"/>
      </g>
     </g>
    </g>
    <g id="ytick_7">
     <g id="line2d_17">
      <g>
       <use xlink:href="#m07d9392a68" x="337.868021" y="45.20502" style="stroke: #000000; stroke-width: 0.8"/>
      </g>
     </g>
     <g id="text_19">
      <!-- 1.0 -->
      <g transform="translate(305.423021 51.28377) scale(0.16 -0.16)">
       <use xlink:href="#DejaVuSans-31"/>
       <use xlink:href="#DejaVuSans-2e" transform="translate(63.623047 0)"/>
       <use xlink:href="#DejaVuSans-30" transform="translate(95.410156 0)"/>
      </g>
     </g>
    </g>
   </g>
   <g id="line2d_18">
    <path d="M 348.502747 162.259039 
L 350.492612 161.896423 
L 351.487545 161.535903 
L 352.482478 160.978144 
L 353.47741 160.142317 
L 354.472343 158.929121 
L 355.467276 157.223498 
L 356.462209 154.900972 
L 357.457141 151.837953 
L 358.452074 147.925647 
L 359.447007 143.086297 
L 360.44194 137.289568 
L 361.436872 130.566303 
L 363.426738 114.810606 
L 367.406469 80.53983 
L 368.401402 73.008505 
L 369.396334 66.359405 
L 370.391267 60.726245 
L 371.3862 56.17217 
L 372.381133 52.693969 
L 373.376065 50.232812 
L 374.370998 48.688875 
L 375.365931 47.937186 
L 376.360864 47.842404 
L 377.355796 48.271027 
L 378.350729 49.100277 
L 379.345662 50.223607 
L 381.335527 53.020027 
L 385.315258 59.420359 
L 390.289922 67.309191 
L 395.264586 75.009323 
L 397.254451 78.403523 
L 399.244317 82.155389 
L 402.229115 88.453871 
L 407.203779 99.282285 
L 409.193644 102.982637 
L 411.18351 106.096573 
L 413.173375 108.703932 
L 418.148039 114.680073 
L 420.137904 117.517354 
L 423.122703 122.412752 
L 426.107501 127.452676 
L 428.097366 130.468866 
L 430.087232 133.056547 
L 432.077097 135.262476 
L 436.056828 139.147302 
L 441.031492 143.825415 
L 443.021357 145.44663 
L 445.011223 146.791388 
L 447.001088 147.867306 
L 454.96055 151.697848 
L 461.92508 155.72919 
L 463.914945 156.591399 
L 465.904811 157.276324 
L 468.889609 158.041572 
L 474.859205 159.173438 
L 481.823735 160.405234 
L 484.808533 160.674176 
L 488.788264 160.765446 
L 500.727457 160.939403 
L 505.70212 161.132858 
L 518.636246 162.045274 
L 536.545036 162.30923 
L 543.509565 162.426407 
L 546.494363 162.435016 
L 546.494363 162.435016 
" clip-path="url(#p0e9c6d1e9e)" style="fill: none; stroke: #780000; stroke-width: 2; stroke-linecap: square"/>
   </g>
   <g id="line2d_19">
    <path d="M 352.686083 162.26453 
L 353.733878 162.052971 
L 354.781673 161.630678 
L 355.829468 160.838745 
L 356.877263 159.443489 
L 357.925058 157.134065 
L 358.972852 153.542944 
L 360.020647 148.29708 
L 361.068442 141.098625 
L 362.116237 131.820666 
L 363.164032 120.590613 
L 365.259621 94.220834 
L 367.355211 67.876883 
L 368.403006 56.737137 
L 369.450801 47.674319 
L 370.498595 40.868008 
L 371.54639 36.221962 
L 372.594185 33.440758 
L 373.64198 32.129241 
L 374.689775 31.885091 
L 375.73757 32.364632 
L 376.785364 33.314624 
L 377.833159 34.573397 
L 379.928749 37.700976 
L 382.024338 41.402782 
L 385.167723 47.612398 
L 387.263313 52.243799 
L 389.358902 57.649736 
L 391.454492 63.924876 
L 394.597876 73.731752 
L 396.693466 79.427352 
L 398.789056 84.138333 
L 400.884645 88.165048 
L 405.075825 95.875661 
L 407.171414 100.223661 
L 411.362594 109.612692 
L 412.410388 111.660216 
L 413.458183 113.436379 
L 414.505978 114.933297 
L 416.601568 117.326127 
L 418.697157 119.607363 
L 420.792747 122.439883 
L 422.888337 125.880954 
L 429.175106 136.854076 
L 431.270695 140.007958 
L 433.366285 142.530161 
L 434.41408 143.526834 
L 436.509669 145.0779 
L 439.653054 146.840098 
L 442.796438 148.701963 
L 449.083207 152.862956 
L 451.178797 153.980401 
L 454.322181 155.378239 
L 457.465566 156.559268 
L 460.60895 157.485624 
L 474.230283 160.745987 
L 476.325873 160.967311 
L 479.469257 161.014651 
L 483.660436 161.003802 
L 493.09059 161.365743 
L 498.329564 161.332186 
L 502.520743 161.527656 
L 512.998691 162.216421 
L 537.097972 162.435126 
L 561.197253 162.436297 
L 561.197253 162.436297 
" clip-path="url(#p0e9c6d1e9e)" style="fill: none; stroke: #003049; stroke-width: 2; stroke-linecap: square"/>
   </g>
   <g id="patch_9">
    <path d="M 337.868021 162.4375 
L 337.868021 25.3575 
" style="fill: none; stroke: #000000; stroke-width: 0.8; stroke-linejoin: miter; stroke-linecap: square"/>
   </g>
   <g id="patch_10">
    <path d="M 571.831979 162.4375 
L 571.831979 25.3575 
" style="fill: none; stroke: #000000; stroke-width: 0.8; stroke-linejoin: miter; stroke-linecap: square"/>
   </g>
   <g id="patch_11">
    <path d="M 337.868021 162.4375 
L 571.831979 162.4375 
" style="fill: none; stroke: #000000; stroke-width: 0.8; stroke-linejoin: miter; stroke-linecap: square"/>
   </g>
   <g id="patch_12">
    <path d="M 337.868021 25.3575 
L 571.831979 25.3575 
" style="fill: none; stroke: #000000; stroke-width: 0.8; stroke-linejoin: miter; stroke-linecap: square"/>
   </g>
   <g id="text_20">
    <!-- APRIL -->
    <g transform="translate(432.1775 19.3575) scale(0.16 -0.16)">
     <defs>
      <path id="DejaVuSans-50" d="M 1259 4147 
L 1259 2394 
L 2053 2394 
Q 2494 2394 2734 2622 
Q 2975 2850 2975 3272 
Q 2975 3691 2734 3919 
Q 2494 4147 2053 4147 
L 1259 4147 
z
M 628 4666 
L 2053 4666 
Q 2838 4666 3239 4311 
Q 3641 3956 3641 3272 
Q 3641 2581 3239 2228 
Q 2838 1875 2053 1875 
L 1259 1875 
L 1259 0 
L 628 0 
L 628 4666 
z
" transform="scale(0.015625)"/>
      <path id="DejaVuSans-52" d="M 2841 2188 
Q 3044 2119 3236 1894 
Q 3428 1669 3622 1275 
L 4263 0 
L 3584 0 
L 2988 1197 
Q 2756 1666 2539 1819 
Q 2322 1972 1947 1972 
L 1259 1972 
L 1259 0 
L 628 0 
L 628 4666 
L 2053 4666 
Q 2853 4666 3247 4331 
Q 3641 3997 3641 3322 
Q 3641 2881 3436 2590 
Q 3231 2300 2841 2188 
z
M 1259 4147 
L 1259 2491 
L 2053 2491 
Q 2509 2491 2742 2702 
Q 2975 2913 2975 3322 
Q 2975 3731 2742 3939 
Q 2509 4147 2053 4147 
L 1259 4147 
z
" transform="scale(0.015625)"/>
      <path id="DejaVuSans-4c" d="M 628 4666 
L 1259 4666 
L 1259 531 
L 3531 531 
L 3531 0 
L 628 0 
L 628 4666 
z
" transform="scale(0.015625)"/>
     </defs>
     <use xlink:href="#DejaVuSans-41"/>
     <use xlink:href="#DejaVuSans-50" transform="translate(68.408203 0)"/>
     <use xlink:href="#DejaVuSans-52" transform="translate(128.710938 0)"/>
     <use xlink:href="#DejaVuSans-49" transform="translate(198.193359 0)"/>
     <use xlink:href="#DejaVuSans-4c" transform="translate(227.685547 0)"/>
    </g>
   </g>
  </g>
  <g id="axes_3">
   <g id="patch_13">
    <path d="M 616.606043 162.4375 
L 850.57 162.4375 
L 850.57 25.3575 
L 616.606043 25.3575 
z
" style="fill: #ffffff"/>
   </g>
   <g id="matplotlib.axis_5">
    <g id="xtick_7">
     <g id="line2d_20">
      <g>
       <use xlink:href="#m75b40e3b96" x="646.44582" y="162.4375" style="stroke: #000000; stroke-width: 0.8"/>
      </g>
     </g>
     <g id="text_21">
      <!-- 0 -->
      <g transform="translate(641.35582 181.595) scale(0.16 -0.16)">
       <use xlink:href="#DejaVuSans-30"/>
      </g>
     </g>
    </g>
    <g id="xtick_8">
     <g id="line2d_21">
      <g>
       <use xlink:href="#m75b40e3b96" x="706.310014" y="162.4375" style="stroke: #000000; stroke-width: 0.8"/>
      </g>
     </g>
     <g id="text_22">
      <!-- 5 -->
      <g transform="translate(701.220014 181.595) scale(0.16 -0.16)">
       <use xlink:href="#DejaVuSans-35"/>
      </g>
     </g>
    </g>
    <g id="xtick_9">
     <g id="line2d_22">
      <g>
       <use xlink:href="#m75b40e3b96" x="766.174209" y="162.4375" style="stroke: #000000; stroke-width: 0.8"/>
      </g>
     </g>
     <g id="text_23">
      <!-- 10 -->
      <g transform="translate(755.994209 181.595) scale(0.16 -0.16)">
       <use xlink:href="#DejaVuSans-31"/>
       <use xlink:href="#DejaVuSans-30" transform="translate(63.623047 0)"/>
      </g>
     </g>
    </g>
    <g id="xtick_10">
     <g id="line2d_23">
      <g>
       <use xlink:href="#m75b40e3b96" x="826.038403" y="162.4375" style="stroke: #000000; stroke-width: 0.8"/>
      </g>
     </g>
     <g id="text_24">
      <!-- 15 -->
      <g transform="translate(815.858403 181.595) scale(0.16 -0.16)">
       <use xlink:href="#DejaVuSans-31"/>
       <use xlink:href="#DejaVuSans-35" transform="translate(63.623047 0)"/>
      </g>
     </g>
    </g>
    <g id="text_25">
     <!-- Absolute log-ratio -->
     <g transform="translate(662.553021 201.08) scale(0.16 -0.16)">
      <use xlink:href="#DejaVuSans-41"/>
      <use xlink:href="#DejaVuSans-62" transform="translate(68.408203 0)"/>
      <use xlink:href="#DejaVuSans-73" transform="translate(131.884766 0)"/>
      <use xlink:href="#DejaVuSans-6f" transform="translate(183.984375 0)"/>
      <use xlink:href="#DejaVuSans-6c" transform="translate(245.166016 0)"/>
      <use xlink:href="#DejaVuSans-75" transform="translate(272.949219 0)"/>
      <use xlink:href="#DejaVuSans-74" transform="translate(336.328125 0)"/>
      <use xlink:href="#DejaVuSans-65" transform="translate(375.537109 0)"/>
      <use xlink:href="#DejaVuSans-20" transform="translate(437.060547 0)"/>
      <use xlink:href="#DejaVuSans-6c" transform="translate(468.847656 0)"/>
      <use xlink:href="#DejaVuSans-6f" transform="translate(496.630859 0)"/>
      <use xlink:href="#DejaVuSans-67" transform="translate(557.8125 0)"/>
      <use xlink:href="#DejaVuSans-2d" transform="translate(621.289062 0)"/>
      <use xlink:href="#DejaVuSans-72" transform="translate(657.373047 0)"/>
      <use xlink:href="#DejaVuSans-61" transform="translate(698.486328 0)"/>
      <use xlink:href="#DejaVuSans-74" transform="translate(759.765625 0)"/>
      <use xlink:href="#DejaVuSans-69" transform="translate(798.974609 0)"/>
      <use xlink:href="#DejaVuSans-6f" transform="translate(826.757812 0)"/>
     </g>
    </g>
   </g>
   <g id="matplotlib.axis_6">
    <g id="ytick_8">
     <g id="line2d_24">
      <g>
       <use xlink:href="#m07d9392a68" x="616.606043" y="162.4375" style="stroke: #000000; stroke-width: 0.8"/>
      </g>
     </g>
     <g id="text_26">
      <!-- 0.0 -->
      <g transform="translate(584.161043 168.51625) scale(0.16 -0.16)">
       <use xlink:href="#DejaVuSans-30"/>
       <use xlink:href="#DejaVuSans-2e" transform="translate(63.623047 0)"/>
       <use xlink:href="#DejaVuSans-30" transform="translate(95.410156 0)"/>
      </g>
     </g>
    </g>
    <g id="ytick_9">
     <g id="line2d_25">
      <g>
       <use xlink:href="#m07d9392a68" x="616.606043" y="112.725246" style="stroke: #000000; stroke-width: 0.8"/>
      </g>
     </g>
     <g id="text_27">
      <!-- 0.2 -->
      <g transform="translate(584.161043 118.803996) scale(0.16 -0.16)">
       <use xlink:href="#DejaVuSans-30"/>
       <use xlink:href="#DejaVuSans-2e" transform="translate(63.623047 0)"/>
       <use xlink:href="#DejaVuSans-32" transform="translate(95.410156 0)"/>
      </g>
     </g>
    </g>
    <g id="ytick_10">
     <g id="line2d_26">
      <g>
       <use xlink:href="#m07d9392a68" x="616.606043" y="63.012993" style="stroke: #000000; stroke-width: 0.8"/>
      </g>
     </g>
     <g id="text_28">
      <!-- 0.4 -->
      <g transform="translate(584.161043 69.091743) scale(0.16 -0.16)">
       <use xlink:href="#DejaVuSans-30"/>
       <use xlink:href="#DejaVuSans-2e" transform="translate(63.623047 0)"/>
       <use xlink:href="#DejaVuSans-34" transform="translate(95.410156 0)"/>
      </g>
     </g>
    </g>
   </g>
   <g id="line2d_27">
    <path d="M 627.240768 162.392074 
L 630.447218 162.230902 
L 632.584851 161.938064 
L 634.722484 161.344456 
L 635.791301 160.878506 
L 636.860118 160.266407 
L 637.928934 159.484096 
L 638.997751 158.511197 
L 640.066567 157.3337 
L 641.135384 155.946468 
L 643.273017 152.577301 
L 645.410651 148.587983 
L 649.685917 140.152038 
L 651.82355 136.443049 
L 653.961183 133.398571 
L 655.03 132.149938 
L 656.098817 131.080033 
L 657.167633 130.178287 
L 658.23645 129.429952 
L 660.374083 128.323386 
L 662.511716 127.616387 
L 664.64935 127.178878 
L 667.8558 126.808252 
L 674.268699 126.223851 
L 681.750416 125.285421 
L 683.888049 125.284157 
L 686.025682 125.498541 
L 688.163315 125.909935 
L 691.369765 126.804335 
L 694.576215 127.943061 
L 698.851481 129.763151 
L 710.608464 135.222347 
L 712.746097 136.464641 
L 715.952547 138.663286 
L 722.365447 143.397363 
L 725.571897 145.419901 
L 729.847163 147.736614 
L 735.191246 150.343462 
L 739.466513 152.215778 
L 743.741779 153.817568 
L 748.017046 155.140217 
L 753.361129 156.511779 
L 759.774028 157.967717 
L 762.980478 158.520434 
L 766.186928 158.821021 
L 769.393378 158.880627 
L 777.943911 158.85672 
L 781.150361 159.100094 
L 784.356811 159.551341 
L 795.044977 161.373707 
L 799.320243 161.710602 
L 804.664326 161.827149 
L 816.421309 161.992945 
L 833.522375 162.418552 
L 839.935275 162.43614 
L 839.935275 162.43614 
" clip-path="url(#pd01dd18258)" style="fill: none; stroke: #780000; stroke-width: 2; stroke-linecap: square"/>
   </g>
   <g id="line2d_28">
    <path d="M 639.029868 162.233964 
L 639.818769 161.884444 
L 640.607671 161.069271 
L 641.396572 159.351638 
L 642.185474 156.082457 
L 642.974375 150.463374 
L 643.763277 141.744771 
L 644.552178 129.539813 
L 646.129981 96.645944 
L 647.707784 62.529583 
L 648.496686 49.357079 
L 649.285587 40.045811 
L 650.074489 34.517745 
L 650.86339 32.097236 
L 651.652292 31.885085 
L 652.441193 33.077591 
L 653.230095 35.125765 
L 654.018996 37.738823 
L 655.596799 44.274203 
L 657.174602 52.290902 
L 661.11911 73.678563 
L 665.063618 92.521458 
L 669.797027 114.299133 
L 672.163731 124.057676 
L 673.741534 129.677881 
L 675.319337 134.415129 
L 676.89714 138.099233 
L 678.474943 140.846302 
L 683.208352 147.847506 
L 684.786155 149.718705 
L 686.363958 151.103254 
L 689.519564 153.429636 
L 692.67517 155.444684 
L 697.40858 158.423939 
L 698.986383 158.902467 
L 700.564186 159.048763 
L 705.297595 159.161131 
L 706.875398 159.462185 
L 710.031004 160.278486 
L 711.608807 160.439801 
L 714.764413 160.608373 
L 718.70892 161.075501 
L 724.231231 161.205663 
L 728.175738 161.295828 
L 736.064754 161.736882 
L 739.22036 161.876757 
L 751.842784 162.135582 
L 762.098503 162.2148 
L 766.043011 162.30326 
L 773.932026 162.235564 
L 784.976647 162.415304 
L 792.076761 162.413333 
L 796.021268 162.43678 
L 796.021268 162.43678 
" clip-path="url(#pd01dd18258)" style="fill: none; stroke: #003049; stroke-width: 2; stroke-linecap: square"/>
   </g>
   <g id="patch_14">
    <path d="M 616.606043 162.4375 
L 616.606043 25.3575 
" style="fill: none; stroke: #000000; stroke-width: 0.8; stroke-linejoin: miter; stroke-linecap: square"/>
   </g>
   <g id="patch_15">
    <path d="M 850.57 162.4375 
L 850.57 25.3575 
" style="fill: none; stroke: #000000; stroke-width: 0.8; stroke-linejoin: miter; stroke-linecap: square"/>
   </g>
   <g id="patch_16">
    <path d="M 616.606043 162.4375 
L 850.57 162.4375 
" style="fill: none; stroke: #000000; stroke-width: 0.8; stroke-linejoin: miter; stroke-linecap: square"/>
   </g>
   <g id="patch_17">
    <path d="M 616.606043 25.3575 
L 850.57 25.3575 
" style="fill: none; stroke: #000000; stroke-width: 0.8; stroke-linejoin: miter; stroke-linecap: square"/>
   </g>
   <g id="text_29">
    <!-- IL-10 -->
    <g transform="translate(713.844271 19.3575) scale(0.16 -0.16)">
     <use xlink:href="#DejaVuSans-49"/>
     <use xlink:href="#DejaVuSans-4c" transform="translate(29.492188 0)"/>
     <use xlink:href="#DejaVuSans-2d" transform="translate(83.455078 0)"/>
     <use xlink:href="#DejaVuSans-31" transform="translate(119.539062 0)"/>
     <use xlink:href="#DejaVuSans-30" transform="translate(183.162109 0)"/>
    </g>
   </g>
  </g>
 </g>
 <defs>
  <clipPath id="p677678a4ac">
   <rect x="59.13" y="25.3575" width="233.963957" height="137.08"/>
  </clipPath>
  <clipPath id="p0e9c6d1e9e">
   <rect x="337.868021" y="25.3575" width="233.963957" height="137.08"/>
  </clipPath>
  <clipPath id="pd01dd18258">
   <rect x="616.606043" y="25.3575" width="233.963957" height="137.08"/>
  </clipPath>
 </defs>
</svg>
